Montserrat-SemiBold.ufo
<glyph name="equal" format="2">
  <advance width="586"/>
  <unicode hex="003D"/>
  <outline>
    <contour>
      <point x="66" y="425" type="line"/>
      <point x="520" y="425" type="line"/>
      <point x="520" y="515" type="line"/>
      <point x="66" y="515" type="line"/>
    </contour>
    <contour>
      <point x="66" y="185" type="line"/>
      <point x="520" y="185" type="line"/>
      <point x="520" y="275" type="line"/>
      <point x="66" y="275" type="line"/>
    </contour>
  </outline>
</glyph>
<glyph name="F" format="2">
  <advance width="636"/>
  <unicode hex="0046"/>
  <outline>
    <contour>
      <point x="204" y="374" type="line"/>
      <point x="204" y="275" type="line"/>
      <point x="559" y="275" type="line"/>
      <point x="559" y="374" type="line"/>
    </contour>
    <contour>
      <point x="214" y="0" type="line"/>
      <point x="214" y="601" type="line"/>
      <point x="602" y="601" type="line"/>
      <point x="602" y="700" type="line"/>
      <point x="100" y="700" type="line"/>
      <point x="100" y="0" type="line"/>
    </contour>
  </outline>
</glyph>
<glyph name="Y" format="2">
  <advance width="654"/>
  <unicode hex="0059"/>
  <anchor x="327" y="0" name="bottom"/>
  <anchor x="324" y="251" name="center"/>
  <anchor x="327" y="700" name="top"/>
  <outline>
    <contour>
      <point x="270" y="0" type="line"/>
      <point x="384" y="0" type="line"/>
      <point x="384" y="272" type="line"/>
      <point x="358" y="202" type="line"/>
      <point x="660" y="700" type="line"/>
      <point x="547" y="700" type="line"/>
      <point x="297" y="289" type="line"/>
      <point x="365" y="289" type="line"/>
      <point x="116" y="700" type="line"/>
      <point x="-6" y="700" type="line"/>
      <point x="296" y="202" type="line"/>
      <point x="270" y="272" type="line"/>
    </contour>
  </outline>
</glyph>
<glyph name="Z" format="2">
  <advance width="660"/>
  <unicode hex="005A"/>
  <anchor x="343" y="0" name="bottom"/>
  <anchor x="338" y="700" name="top"/>
  <outline>
    <contour>
      <point x="42" y="0" type="line"/>
      <point x="633" y="0" type="line"/>
      <point x="633" y="99" type="line"/>
      <point x="145" y="99" type="line"/>
      <point x="159" y="55" type="line"/>
      <point x="620" y="622" type="line"/>
      <point x="620" y="700" type="line"/>
      <point x="49" y="700" type="line"/>
      <point x="49" y="601" type="line"/>
      <point x="517" y="601" type="line"/>
      <point x="504" y="645" type="line"/>
      <point x="42" y="78" type="line"/>
    </contour>
  </outline>
</glyph>
<glyph name="e" format="2">
  <advance width="617"/>
  <unicode hex="0065"/>
  <anchor x="309" y="0" name="bottom"/>
  <anchor x="524" y="0" name="ogonek"/>
  <anchor x="309" y="532" name="top"/>
  <outline>
    <contour>
      <point x="330" y="-6" type="curve" smooth="yes"/>
      <point x="420" y="-6"/>
      <point x="494" y="24"/>
      <point x="542" y="80" type="curve"/>
      <point x="482" y="151" type="line"/>
      <point x="444" y="110"/>
      <point x="394" y="90"/>
      <point x="333" y="90" type="curve" smooth="yes"/>
      <point x="222" y="90"/>
      <point x="148" y="159"/>
      <point x="148" y="260" type="curve" smooth="yes"/>
      <point x="148" y="278" type="line" smooth="yes"/>
      <point x="148" y="377"/>
      <point x="215" y="445"/>
      <point x="311" y="445" type="curve" smooth="yes"/>
      <point x="407" y="445"/>
      <point x="474" y="377"/>
      <point x="473" y="281" type="curve"/>
      <point x="517" y="307" type="line"/>
      <point x="127" y="307" type="line"/>
      <point x="127" y="228" type="line"/>
      <point x="575" y="228" type="line"/>
      <point x="576" y="239"/>
      <point x="577" y="253"/>
      <point x="577" y="262" type="curve" smooth="yes"/>
      <point x="577" y="427"/>
      <point x="467" y="538"/>
      <point x="311" y="538" type="curve" smooth="yes"/>
      <point x="155" y="538"/>
      <point x="40" y="424"/>
      <point x="40" y="266" type="curve" smooth="yes"/>
      <point x="40" y="107"/>
      <point x="155" y="-6"/>
    </contour>
  </outline>
</glyph>
<glyph name="g" format="2">
  <advance width="692"/>
  <unicode hex="0067"/>
  <anchor x="332" y="532" name="top"/>
  <outline>
    <contour>
      <point x="323" y="-200" type="curve" smooth="yes"/>
      <point x="507" y="-200"/>
      <point x="605" y="-114"/>
      <point x="605" y="77" type="curve" smooth="yes"/>
      <point x="605" y="532" type="line"/>
      <point x="500" y="532" type="line"/>
      <point x="500" y="395" type="line"/>
      <point x="505" y="281" type="line"/>
      <point x="495" y="168" type="line"/>
      <point x="495" y="65" type="line" smooth="yes"/>
      <point x="495" y="-48"/>
      <point x="440" y="-104"/>
      <point x="319" y="-104" type="curve" smooth="yes"/>
      <point x="243" y="-104"/>
      <point x="166" y="-78"/>
      <point x="118" y="-38" type="curve"/>
      <point x="65" y="-123" type="line"/>
      <point x="125" y="-174"/>
      <point x="225" y="-200"/>
    </contour>
    <contour>
      <point x="312" y="23" type="curve" smooth="yes"/>
      <point x="445" y="23"/>
      <point x="558" y="103"/>
      <point x="558" y="281" type="curve" smooth="yes"/>
      <point x="558" y="459"/>
      <point x="445" y="538"/>
      <point x="312" y="538" type="curve" smooth="yes"/>
      <point x="157" y="538"/>
      <point x="40" y="435"/>
      <point x="40" y="281" type="curve" smooth="yes"/>
      <point x="40" y="127"/>
      <point x="157" y="23"/>
    </contour>
    <contour>
      <point x="324" y="119" type="curve" smooth="yes"/>
      <point x="223" y="119"/>
      <point x="151" y="185"/>
      <point x="151" y="281" type="curve" smooth="yes"/>
      <point x="151" y="377"/>
      <point x="223" y="442"/>
      <point x="324" y="442" type="curve" smooth="yes"/>
      <point x="425" y="442"/>
      <point x="497" y="377"/>
      <point x="497" y="281" type="curve" smooth="yes"/>
      <point x="497" y="185"/>
      <point x="425" y="119"/>
    </contour>
  </outline>
</glyph>
<glyph name="k" format="2">
  <advance width="625"/>
  <unicode hex="006B"/>
  <anchor x="313.99" y="0" name="bottom"/>
  <anchor x="142" y="742" name="top"/>
  <anchor x="259" y="532" name="topright"/>
  <outline>
    <contour>
      <point x="176" y="123" type="line"/>
      <point x="309" y="248" type="line"/>
      <point x="368" y="298" type="line"/>
      <point x="604" y="532" type="line"/>
      <point x="471" y="532" type="line"/>
      <point x="179" y="264" type="line"/>
    </contour>
    <contour>
      <point x="87" y="0" type="line"/>
      <point x="197" y="0" type="line"/>
      <point x="197" y="742" type="line"/>
      <point x="87" y="742" type="line"/>
    </contour>
    <contour>
      <point x="491" y="0" type="line"/>
      <point x="625" y="0" type="line"/>
      <point x="359" y="338" type="line"/>
      <point x="289" y="249" type="line"/>
    </contour>
  </outline>
</glyph>
<glyph name="o" format="2">
  <advance width="640"/>
  <unicode hex="006F"/>
  <anchor x="319" y="0" name="bottom"/>
  <anchor x="319" y="266" name="center"/>
  <anchor x="421" y="0" name="ogonek"/>
  <anchor x="319" y="532" name="top"/>
  <anchor x="452" y="532" name="topright"/>
  <outline>
    <contour>
      <point x="320" y="-6" type="curve" smooth="yes"/>
      <point x="482" y="-6"/>
      <point x="600" y="107"/>
      <point x="600" y="266" type="curve" smooth="yes"/>
      <point x="600" y="425"/>
      <point x="482" y="538"/>
      <point x="320" y="538" type="curve" smooth="yes"/>
      <point x="159" y="538"/>
      <point x="40" y="425"/>
      <point x="40" y="266" type="curve" smooth="yes"/>
      <point x="40" y="107"/>
      <point x="159" y="-6"/>
    </contour>
    <contour>
      <point x="320" y="90" type="curve" smooth="yes"/>
      <point x="224" y="90"/>
      <point x="151" y="159"/>
      <point x="151" y="266" type="curve" smooth="yes"/>
      <point x="151" y="373"/>
      <point x="224" y="442"/>
      <point x="320" y="442" type="curve" smooth="yes"/>
      <point x="417" y="442"/>
      <point x="489" y="373"/>
      <point x="489" y="266" type="curve" smooth="yes"/>
      <point x="489" y="159"/>
      <point x="417" y="90"/>
    </contour>
  </outline>
</glyph>
<glyph name="v" format="2">
  <advance width="568"/>
  <unicode hex="0076"/>
  <anchor x="284" y="0" name="bottom"/>
  <anchor x="284" y="532" name="top"/>
  <outline>
    <contour>
      <point x="227" y="0" type="line"/>
      <point x="340" y="0" type="line"/>
      <point x="571" y="532" type="line"/>
      <point x="464" y="532" type="line"/>
      <point x="257" y="57" type="line"/>
      <point x="313" y="57" type="line"/>
      <point x="111" y="532" type="line"/>
      <point x="-3" y="532" type="line"/>
    </contour>
  </outline>
</glyph>
<glyph name="x" format="2">
  <advance width="562"/>
  <unicode hex="0078"/>
  <outline>
    <contour>
      <point x="12" y="0" type="line"/>
      <point x="134" y="0" type="line"/>
      <point x="301" y="221" type="line"/>
      <point x="255" y="227" type="line"/>
      <point x="426" y="0" type="line"/>
      <point x="550" y="0" type="line"/>
      <point x="318" y="300" type="line"/>
      <point x="317" y="242" type="line"/>
      <point x="540" y="532" type="line"/>
      <point x="420" y="532" type="line"/>
      <point x="258" y="319" type="line"/>
      <point x="305" y="318" type="line"/>
      <point x="143" y="532" type="line"/>
      <point x="21" y="532" type="line"/>
      <point x="242" y="244" type="line"/>
      <point x="243" y="301" type="line"/>
    </contour>
  </outline>
</glyph>
<glyph name="braceleft" format="2">
  <advance width="360"/>
  <unicode hex="007B"/>
  <outline>
    <contour>
      <point x="295" y="-194" type="curve" smooth="yes"/>
      <point x="342" y="-194" type="line"/>
      <point x="342" y="-104" type="line"/>
      <point x="319" y="-104" type="line" smooth="yes"/>
      <point x="269" y="-104"/>
      <point x="245" y="-76"/>
      <point x="245" y="-27" type="curve" smooth="yes"/>
      <point x="245" y="177" type="line" smooth="yes"/>
      <point x="245" y="251"/>
      <point x="217" y="272"/>
      <point x="156" y="281" type="curve"/>
      <point x="156" y="267" type="line"/>
      <point x="217" y="276"/>
      <point x="245" y="297"/>
      <point x="245" y="371" type="curve" smooth="yes"/>
      <point x="245" y="575" type="line" smooth="yes"/>
      <point x="245" y="624"/>
      <point x="269" y="652"/>
      <point x="319" y="652" type="curve" smooth="yes"/>
      <point x="342" y="652" type="line"/>
      <point x="342" y="742" type="line"/>
      <point x="295" y="742" type="line" smooth="yes"/>
      <point x="189" y="742"/>
      <point x="135" y="688"/>
      <point x="135" y="586" type="curve" smooth="yes"/>
      <point x="135" y="369" type="line" smooth="yes"/>
      <point x="135" y="335"/>
      <point x="118" y="320"/>
      <point x="90" y="320" type="curve" smooth="yes"/>
      <point x="56" y="320" type="line"/>
      <point x="56" y="228" type="line"/>
      <point x="90" y="228" type="line" smooth="yes"/>
      <point x="118" y="228"/>
      <point x="135" y="213"/>
      <point x="135" y="179" type="curve" smooth="yes"/>
      <point x="135" y="-38" type="line" smooth="yes"/>
      <point x="135" y="-140"/>
      <point x="189" y="-194"/>
    </contour>
  </outline>
</glyph>
<glyph name="exclamdown" format="2">
  <advance width="273"/>
  <unicode hex="00A1"/>
  <outline>
    <contour>
      <point x="180" y="305" type="line"/>
      <point x="93" y="305" type="line"/>
      <point x="72" y="-154" type="line"/>
      <point x="202" y="-154" type="line"/>
    </contour>
    <contour>
      <point x="137" y="538" type="curve" smooth="yes"/>
      <point x="95" y="538"/>
      <point x="64" y="506"/>
      <point x="64" y="466" type="curve" smooth="yes"/>
      <point x="64" y="427"/>
      <point x="95" y="396"/>
      <point x="137" y="396" type="curve" smooth="yes"/>
      <point x="179" y="396"/>
      <point x="209" y="427"/>
      <point x="209" y="466" type="curve" smooth="yes"/>
      <point x="209" y="506"/>
      <point x="179" y="538"/>
    </contour>
  </outline>
</glyph>
<glyph name="yen" format="2">
  <advance width="714"/>
  <unicode hex="00A5"/>
  <outline>
    <contour>
      <point x="300" y="0" type="line"/>
      <point x="414" y="0" type="line"/>
      <point x="414" y="305" type="line"/>
      <point x="388" y="229" type="line"/>
      <point x="720" y="700" type="line"/>
      <point x="604" y="700" type="line"/>
      <point x="324" y="303" type="line"/>
      <point x="394" y="303" type="line"/>
      <point x="115" y="700" type="line"/>
      <point x="-6" y="700" type="line"/>
      <point x="326" y="229" type="line"/>
      <point x="300" y="305" type="line"/>
    </contour>
    <contour>
      <point x="95" y="110" type="line"/>
      <point x="619" y="110" type="line"/>
      <point x="619" y="174" type="line"/>
      <point x="95" y="174" type="line"/>
    </contour>
    <contour>
      <point x="95" y="248" type="line"/>
      <point x="619" y="248" type="line"/>
      <point x="619" y="312" type="line"/>
      <point x="95" y="312" type="line"/>
    </contour>
  </outline>
</glyph>
<glyph name="IJ" format="2">
  <advance width="721"/>
  <unicode hex="0132"/>
  <anchor x="151" y="700" name="top"/>
  <outline>
    <contour>
      <point x="327" y="-9" type="curve" smooth="yes"/>
      <point x="508" y="-9"/>
      <point x="627" y="100"/>
      <point x="627" y="309" type="curve" smooth="yes"/>
      <point x="627" y="700" type="line"/>
      <point x="513" y="700" type="line"/>
      <point x="513" y="303" type="line" smooth="yes"/>
      <point x="513" y="160"/>
      <point x="447" y="93"/>
      <point x="329" y="93" type="curve" smooth="yes"/>
      <point x="255" y="93"/>
      <point x="184" y="115"/>
      <point x="125" y="155" type="curve"/>
      <point x="81" y="63" type="line"/>
      <point x="143" y="20"/>
      <point x="230" y="-9"/>
    </contour>
    <contour>
      <point x="94" y="312" type="line"/>
      <point x="208" y="312" type="line"/>
      <point x="208" y="700" type="line"/>
      <point x="94" y="700" type="line"/>
    </contour>
  </outline>
</glyph>
<glyph name="ohorn" format="2">
  <advance width="640"/>
  <unicode hex="01A1"/>
  <anchor x="320" y="0" name="bottom"/>
  <anchor x="320" y="532" name="top"/>
  <outline>
    <contour>
      <point x="320" y="-6" type="curve" smooth="yes"/>
      <point x="482" y="-6"/>
      <point x="600" y="107"/>
      <point x="600" y="266" type="curve" smooth="yes"/>
      <point x="600" y="386"/>
      <point x="532" y="479"/>
      <point x="428" y="518" type="curve"/>
      <point x="361" y="466" type="line"/>
      <point x="386" y="462"/>
      <point x="409" y="459"/>
      <point x="432" y="459" type="curve" smooth="yes"/>
      <point x="532" y="459"/>
      <point x="591" y="511"/>
      <point x="591" y="594" type="curve" smooth="yes"/>
      <point x="591" y="629"/>
      <point x="578" y="661"/>
      <point x="561" y="686" type="curve"/>
      <point x="493" y="660" type="line"/>
      <point x="505" y="643"/>
      <point x="514" y="622"/>
      <point x="514" y="598" type="curve" smooth="yes"/>
      <point x="514" y="561"/>
      <point x="491" y="531"/>
      <point x="441" y="531" type="curve" smooth="yes"/>
      <point x="398" y="531"/>
      <point x="374" y="538"/>
      <point x="321" y="538" type="curve" smooth="yes"/>
      <point x="159" y="538"/>
      <point x="40" y="425"/>
      <point x="40" y="266" type="curve" smooth="yes"/>
      <point x="40" y="107"/>
      <point x="159" y="-6"/>
    </contour>
    <contour>
      <point x="320" y="90" type="curve" smooth="yes"/>
      <point x="224" y="90"/>
      <point x="151" y="159"/>
      <point x="151" y="266" type="curve" smooth="yes"/>
      <point x="151" y="373"/>
      <point x="224" y="442"/>
      <point x="320" y="442" type="curve" smooth="yes"/>
      <point x="417" y="442"/>
      <point x="489" y="373"/>
      <point x="489" y="266" type="curve" smooth="yes"/>
      <point x="489" y="159"/>
      <point x="416" y="90"/>
    </contour>
  </outline>
</glyph>
<glyph name="ringhalfright" format="2">
  <advance width="600"/>
  <unicode hex="02BE"/>
  <outline>
    <contour>
      <point x="299" y="594" type="line"/>
      <point x="367" y="594"/>
      <point x="415" y="643"/>
      <point x="415" y="705" type="curve" smooth="yes"/>
      <point x="415" y="767"/>
      <point x="367" y="818"/>
      <point x="299" y="818" type="curve"/>
      <point x="299" y="769" type="line"/>
      <point x="336" y="769"/>
      <point x="364" y="742"/>
      <point x="364" y="705" type="curve" smooth="yes"/>
      <point x="364" y="669"/>
      <point x="337" y="642"/>
      <point x="299" y="642" type="curve"/>
    </contour>
  </outline>
</glyph>
<glyph name="ogonekcomb" format="2">
  <unicode hex="0328"/>
  <anchor x="301" y="0" name="_ogonek"/>
  <outline>
    <contour>
      <point x="231" y="-226" type="curve" smooth="yes"/>
      <point x="265" y="-226"/>
      <point x="299" y="-217"/>
      <point x="324" y="-203" type="curve"/>
      <point x="304" y="-147" type="line"/>
      <point x="288" y="-157"/>
      <point x="264" y="-163"/>
      <point x="243" y="-163" type="curve" smooth="yes"/>
      <point x="208" y="-163"/>
      <point x="183" y="-145"/>
      <point x="183" y="-113" type="curve" smooth="yes"/>
      <point x="183" y="-73"/>
      <point x="217" y="-38"/>
      <point x="301" y="0" type="curve"/>
      <point x="250" y="35" type="line"/>
      <point x="145" y="-7"/>
      <point x="106" y="-66"/>
      <point x="106" y="-122" type="curve" smooth="yes"/>
      <point x="106" y="-183"/>
      <point x="152" y="-226"/>
    </contour>
  </outline>
</glyph>
<glyph name="strokeshortcomb" format="2">
  <unicode hex="0335"/>
  <anchor x="300" y="437" name="_center"/>
  <outline>
    <contour>
      <point x="100" y="399" type="line"/>
      <point x="500" y="399" type="line"/>
      <point x="500" y="476" type="line"/>
      <point x="100" y="476" type="line"/>
    </contour>
  </outline>
</glyph>
<glyph name="slashlongcomb" format="2">
  <unicode hex="0338"/>
  <anchor x="313" y="267" name="_center"/>
  <outline>
    <contour>
      <point x="60" y="-70" type="line"/>
      <point x="126" y="-70" type="line"/>
      <point x="566" y="601" type="line"/>
      <point x="500" y="601" type="line"/>
    </contour>
  </outline>
</glyph>
<glyph name="E-cy" format="2">
  <advance width="709"/>
  <unicode hex="0404"/>
  <anchor x="387" y="0" name="bottom"/>
  <outline>
    <contour>
      <point x="495" y="391" type="line"/>
      <point x="127" y="391" type="line"/>
      <point x="127" y="298" type="line"/>
      <point x="495" y="298" type="line"/>
    </contour>
    <contour>
      <point x="405" y="-9" type="curve" smooth="yes"/>
      <point x="520" y="-9"/>
      <point x="618" y="30"/>
      <point x="682" y="105" type="curve"/>
      <point x="610" y="177" type="line"/>
      <point x="556" y="120"/>
      <point x="489" y="94"/>
      <point x="411" y="94" type="curve" smooth="yes"/>
      <point x="269" y="94"/>
      <point x="166" y="201"/>
      <point x="166" y="350" type="curve" smooth="yes"/>
      <point x="166" y="499"/>
      <point x="269" y="606"/>
      <point x="411" y="606" type="curve" smooth="yes"/>
      <point x="489" y="606"/>
      <point x="556" y="580"/>
      <point x="610" y="523" type="curve"/>
      <point x="682" y="595" type="line"/>
      <point x="618" y="670"/>
      <point x="520" y="709"/>
      <point x="405" y="709" type="curve" smooth="yes"/>
      <point x="201" y="709"/>
      <point x="50" y="558"/>
      <point x="50" y="350" type="curve" smooth="yes"/>
      <point x="50" y="142"/>
      <point x="201" y="-9"/>
    </contour>
  </outline>
</glyph>
<glyph name="Zhe-cy" format="2">
  <advance width="1039"/>
  <unicode hex="0416"/>
  <anchor x="889" y="0" name="bottomleft"/>
  <anchor x="1032" y="0" name="bottomright"/>
  <anchor x="521" y="700" name="top"/>
  <outline>
    <contour>
      <point x="889" y="0" type="line"/>
      <point x="1022" y="0" type="line"/>
      <point x="774" y="401" type="line"/>
      <point x="677" y="343" type="line"/>
    </contour>
    <contour>
      <point x="542" y="301" type="line"/>
      <point x="750" y="301" type="line"/>
      <point x="750" y="402" type="line"/>
      <point x="542" y="402" type="line"/>
    </contour>
    <contour>
      <point x="780" y="337" type="line"/>
      <point x="1006" y="700" type="line"/>
      <point x="884" y="700" type="line"/>
      <point x="674" y="352" type="line"/>
    </contour>
    <contour>
      <point x="150" y="0" type="line"/>
      <point x="362" y="343" type="line"/>
      <point x="265" y="401" type="line"/>
      <point x="17" y="0" type="line"/>
    </contour>
    <contour>
      <point x="576" y="0" type="line"/>
      <point x="576" y="700" type="line"/>
      <point x="464" y="700" type="line"/>
      <point x="464" y="0" type="line"/>
    </contour>
    <contour>
      <point x="498" y="301" type="line"/>
      <point x="498" y="402" type="line"/>
      <point x="289" y="402" type="line"/>
      <point x="289" y="301" type="line"/>
    </contour>
    <contour>
      <point x="260" y="337" type="line"/>
      <point x="364" y="352" type="line"/>
      <point x="155" y="700" type="line"/>
      <point x="33" y="700" type="line"/>
    </contour>
  </outline>
</glyph>
<glyph name="Ii-cy" format="2">
  <advance width="823"/>
  <unicode hex="0418"/>
  <anchor x="611" y="0" name="bottomleft"/>
  <anchor x="801" y="0" name="bottomright"/>
  <anchor x="410" y="700" name="top"/>
  <outline>
    <contour>
      <point x="104" y="0" type="line"/>
      <point x="210" y="0" type="line"/>
      <point x="606" y="516" type="line"/>
      <point x="606" y="0" type="line"/>
      <point x="719" y="0" type="line"/>
      <point x="719" y="700" type="line"/>
      <point x="613" y="700" type="line"/>
      <point x="217" y="183" type="line"/>
      <point x="217" y="700" type="line"/>
      <point x="104" y="700" type="line"/>
    </contour>
  </outline>
</glyph>
<glyph name="Pe-cy" format="2">
  <advance width="819"/>
  <unicode hex="041F"/>
  <anchor x="602" y="0" name="bottomleft"/>
  <outline>
    <contour>
      <point x="104" y="0" type="line"/>
      <point x="217" y="0" type="line"/>
      <point x="217" y="630" type="line"/>
      <point x="190" y="601" type="line"/>
      <point x="629" y="601" type="line"/>
      <point x="602" y="630" type="line"/>
      <point x="602" y="0" type="line"/>
      <point x="715" y="0" type="line"/>
      <point x="715" y="700" type="line"/>
      <point x="104" y="700" type="line"/>
    </contour>
  </outline>
</glyph>
<glyph name="Ef-cy" format="2">
  <advance width="931"/>
  <unicode hex="0424"/>
  <outline>
    <contour>
      <point x="452" y="46" type="curve" smooth="yes"/>
      <point x="456" y="46"/>
      <point x="482" y="46"/>
      <point x="486" y="46" type="curve" smooth="yes"/>
      <point x="742" y="46"/>
      <point x="889" y="158"/>
      <point x="889" y="351" type="curve" smooth="yes"/>
      <point x="889" y="545"/>
      <point x="740" y="657"/>
      <point x="481" y="657" type="curve" smooth="yes"/>
      <point x="478" y="657"/>
      <point x="455" y="657"/>
      <point x="452" y="657" type="curve" smooth="yes"/>
      <point x="192" y="657"/>
      <point x="42" y="546"/>
      <point x="42" y="351" type="curve" smooth="yes"/>
      <point x="42" y="157"/>
      <point x="192" y="46"/>
    </contour>
    <contour>
      <point x="464" y="135" type="curve" smooth="yes"/>
      <point x="268" y="135"/>
      <point x="153" y="207"/>
      <point x="153" y="351" type="curve" smooth="yes"/>
      <point x="153" y="495"/>
      <point x="261" y="567"/>
      <point x="464" y="567" type="curve" smooth="yes"/>
      <point x="467" y="567"/>
      <point x="474" y="567"/>
      <point x="476" y="567" type="curve" smooth="yes"/>
      <point x="670" y="567"/>
      <point x="779" y="493"/>
      <point x="779" y="352" type="curve" smooth="yes"/>
      <point x="779" y="210"/>
      <point x="672" y="136"/>
      <point x="474" y="135" type="curve" smooth="yes"/>
      <point x="473" y="135"/>
      <point x="466" y="135"/>
    </contour>
    <contour>
      <point x="413" y="-27" type="line"/>
      <point x="519" y="-27" type="line"/>
      <point x="519" y="727" type="line"/>
      <point x="413" y="727" type="line"/>
    </contour>
  </outline>
</glyph>
<glyph name="Tse-cy" format="2">
  <advance width="831"/>
  <unicode hex="0426"/>
  <anchor x="582" y="0" name="_bottomleft"/>
  <outline>
    <contour>
      <point x="104" y="0" type="line"/>
      <point x="703" y="0" type="line"/>
      <point x="703" y="700" type="line"/>
      <point x="589" y="700" type="line"/>
      <point x="589" y="99" type="line"/>
      <point x="217" y="99" type="line"/>
      <point x="217" y="700" type="line"/>
      <point x="104" y="700" type="line"/>
    </contour>
    <contour>
      <point x="703" y="-156" type="line"/>
      <point x="809" y="-156" type="line"/>
      <point x="809" y="99" type="line"/>
      <point x="589" y="99" type="line"/>
      <point x="589" y="0" type="line"/>
      <point x="729" y="0" type="line"/>
      <point x="703" y="29" type="line"/>
    </contour>
  </outline>
</glyph>
<glyph name="em-cy" format="2">
  <advance width="802"/>
  <unicode hex="043C"/>
  <anchor x="401" y="0" name="bottom"/>
  <anchor x="613" y="0" name="bottomleft"/>
  <anchor x="401" y="532" name="top"/>
  <outline>
    <contour>
      <point x="89" y="0" type="line"/>
      <point x="189" y="0" type="line"/>
      <point x="189" y="412" type="line"/>
      <point x="168" y="407" type="line"/>
      <point x="376" y="58" type="line"/>
      <point x="424" y="58" type="line"/>
      <point x="631" y="399" type="line"/>
      <point x="613" y="410" type="line"/>
      <point x="613" y="0" type="line"/>
      <point x="713" y="0" type="line"/>
      <point x="712" y="532" type="line"/>
      <point x="609" y="532" type="line"/>
      <point x="379" y="147" type="line"/>
      <point x="425" y="147" type="line"/>
      <point x="203" y="532" type="line"/>
      <point x="89" y="532" type="line"/>
    </contour>
  </outline>
</glyph>
<glyph name="nje-cy" format="2">
  <advance width="957"/>
  <unicode hex="045A"/>
  <outline>
    <contour>
      <point x="732" y="330" type="curve" smooth="yes"/>
      <point x="585" y="330" type="line"/>
      <point x="585" y="532" type="line"/>
      <point x="475" y="532" type="line"/>
      <point x="475" y="330" type="line"/>
      <point x="199" y="330" type="line"/>
      <point x="199" y="532" type="line"/>
      <point x="89" y="532" type="line"/>
      <point x="89" y="0" type="line"/>
      <point x="199" y="0" type="line"/>
      <point x="199" y="235" type="line"/>
      <point x="475" y="235" type="line"/>
      <point x="475" y="0" type="line"/>
      <point x="715" y="0" type="line" smooth="yes"/>
      <point x="851" y="0"/>
      <point x="932" y="64"/>
      <point x="932" y="171" type="curve" smooth="yes"/>
      <point x="932" y="273"/>
      <point x="860" y="330"/>
    </contour>
    <contour>
      <point x="709" y="81" type="curve" smooth="yes"/>
      <point x="585" y="81" type="line"/>
      <point x="585" y="241" type="line"/>
      <point x="709" y="241" type="line" smooth="yes"/>
      <point x="781" y="241"/>
      <point x="820" y="214"/>
      <point x="820" y="164" type="curve" smooth="yes"/>
      <point x="820" y="112"/>
      <point x="780" y="81"/>
    </contour>
  </outline>
</glyph>
<glyph name="Yat-cy" format="2">
  <advance width="816"/>
  <unicode hex="0462"/>
  <anchor x="275" y="585" name="center"/>
  <outline>
    <contour>
      <point x="204" y="0" type="line"/>
      <point x="503" y="0" type="line" smooth="yes"/>
      <point x="680" y="0"/>
      <point x="779" y="84"/>
      <point x="779" y="233" type="curve" smooth="yes"/>
      <point x="779" y="378"/>
      <point x="689" y="455"/>
      <point x="523" y="455" type="curve" smooth="yes"/>
      <point x="317" y="455" type="line"/>
      <point x="317" y="742" type="line"/>
      <point x="204" y="742" type="line"/>
    </contour>
    <contour>
      <point x="317" y="90" type="line"/>
      <point x="317" y="365" type="line"/>
      <point x="499" y="365" type="line" smooth="yes"/>
      <point x="609" y="365"/>
      <point x="663" y="320"/>
      <point x="663" y="230" type="curve" smooth="yes"/>
      <point x="663" y="138"/>
      <point x="607" y="90"/>
      <point x="499" y="90" type="curve" smooth="yes"/>
    </contour>
    <contour>
      <point x="19" y="550" type="line"/>
      <point x="527" y="550" type="line"/>
      <point x="527" y="635" type="line"/>
      <point x="19" y="635" type="line"/>
    </contour>
  </outline>
</glyph>
<glyph name="Gheupturn-cy" format="2">
  <advance width="585"/>
  <unicode hex="0490"/>
  <outline>
    <contour>
      <point x="104" y="0" type="line"/>
      <point x="217" y="0" type="line"/>
      <point x="217" y="601" type="line"/>
      <point x="571" y="601" type="line"/>
      <point x="571" y="844" type="line"/>
      <point x="465" y="844" type="line"/>
      <point x="465" y="700" type="line"/>
      <point x="104" y="700" type="line"/>
    </contour>
  </outline>
</glyph>
<glyph name="ghemiddlehook-cy" format="2">
  <advance width="606"/>
  <unicode hex="0495"/>
  <outline>
    <contour>
      <point x="89" y="0" type="line"/>
      <point x="199" y="0" type="line"/>
      <point x="199" y="464" type="line"/>
      <point x="173" y="436" type="line"/>
      <point x="478" y="436" type="line"/>
      <point x="478" y="532" type="line"/>
      <point x="89" y="532" type="line"/>
    </contour>
    <contour>
      <point x="248" y="-192" type="line"/>
      <point x="446" y="-232"/>
      <point x="586" y="-120"/>
      <point x="586" y="54" type="curve" smooth="yes"/>
      <point x="586" y="261"/>
      <point x="383" y="345"/>
      <point x="175" y="247" type="curve"/>
      <point x="178" y="149" type="line"/>
      <point x="295" y="227"/>
      <point x="473" y="213"/>
      <point x="473" y="49" type="curve" smooth="yes"/>
      <point x="473" y="-56"/>
      <point x="397" y="-120"/>
      <point x="271" y="-97" type="curve"/>
    </contour>
  </outline>
</glyph>
<glyph name="Kastroke-cy" format="2">
  <advance width="738"/>
  <unicode hex="049E"/>
  <anchor x="593" y="0" name="bottomleft"/>
  <anchor x="730" y="0" name="bottomright"/>
  <anchor x="385" y="700" name="top"/>
  <outline>
    <contour>
      <point x="34" y="535" type="line"/>
      <point x="399" y="535" type="line"/>
      <point x="399" y="615" type="line"/>
      <point x="34" y="615" type="line"/>
    </contour>
    <component base="Ka-cy" xOffset="22"/>
  </outline>
</glyph>
<glyph name="Haabkhasian-cy" format="2">
  <advance width="975"/>
  <unicode hex="04A8"/>
  <outline>
    <contour>
      <point x="447" y="-9" type="curve" smooth="yes"/>
      <point x="702" y="-9"/>
      <point x="901" y="180"/>
      <point x="901" y="418" type="curve" smooth="yes"/>
      <point x="901" y="590"/>
      <point x="793" y="709"/>
      <point x="631" y="709" type="curve" smooth="yes"/>
      <point x="464" y="709"/>
      <point x="352" y="582"/>
      <point x="352" y="399" type="curve" smooth="yes"/>
      <point x="352" y="112"/>
      <point x="615" y="-70"/>
      <point x="910" y="9" type="curve"/>
      <point x="900" y="93" type="line"/>
      <point x="660" y="24"/>
      <point x="468" y="158"/>
      <point x="468" y="398" type="curve" smooth="yes"/>
      <point x="468" y="525"/>
      <point x="529" y="607"/>
      <point x="629" y="607" type="curve" smooth="yes"/>
      <point x="727" y="607"/>
      <point x="785" y="529"/>
      <point x="785" y="404" type="curve" smooth="yes"/>
      <point x="785" y="208"/>
      <point x="660" y="76"/>
      <point x="469" y="76" type="curve" smooth="yes"/>
      <point x="289" y="76"/>
      <point x="169" y="194"/>
      <point x="169" y="367" type="curve" smooth="yes"/>
      <point x="169" y="480"/>
      <point x="224" y="589"/>
      <point x="316" y="656" type="curve"/>
      <point x="226" y="707" type="line"/>
      <point x="117" y="632"/>
      <point x="54" y="507"/>
      <point x="54" y="372" type="curve" smooth="yes"/>
      <point x="54" y="148"/>
      <point x="215" y="-9"/>
    </contour>
  </outline>
</glyph>
<glyph name="tetse-cy" format="2">
  <advance width="779"/>
  <unicode hex="04B5"/>
  <outline>
    <contour>
      <point x="198" y="0" type="line"/>
      <point x="670" y="0" type="line"/>
      <point x="670" y="532" type="line"/>
      <point x="560" y="532" type="line"/>
      <point x="560" y="96" type="line"/>
      <point x="308" y="96" type="line"/>
      <point x="308" y="532" type="line"/>
      <point x="198" y="532" type="line"/>
    </contour>
    <contour>
      <point x="642" y="-111" type="line"/>
      <point x="745" y="-111" type="line"/>
      <point x="745" y="96" type="line"/>
      <point x="560" y="96" type="line"/>
      <point x="560" y="0" type="line"/>
      <point x="667" y="0" type="line"/>
      <point x="642" y="28" type="line"/>
    </contour>
    <contour>
      <point x="455" y="532" type="line"/>
      <point x="7" y="532" type="line"/>
      <point x="7" y="436" type="line"/>
      <point x="455" y="436" type="line"/>
    </contour>
  </outline>
</glyph>
<glyph name="Cheverticalstroke-cy" format="2">
  <advance width="739"/>
  <unicode hex="04B8"/>
  <anchor x="521" y="0" name="bottomleft"/>
  <anchor x="718" y="0" name="bottomright"/>
  <anchor x="342" y="700" name="top"/>
  <outline>
    <contour>
      <point x="292" y="96" type="line"/>
      <point x="377" y="96" type="line"/>
      <point x="377" y="467" type="line"/>
      <point x="292" y="467" type="line"/>
    </contour>
    <component base="Che-cy" xOffset="-1"/>
  </outline>
</glyph>
<glyph name="cheverticalstroke-cy" format="2">
  <advance width="615"/>
  <unicode hex="04B9"/>
  <anchor x="415" y="0" name="bottomleft"/>
  <anchor x="593" y="0" name="bottomright"/>
  <anchor x="279" y="532" name="top"/>
  <outline>
    <contour>
      <point x="238" y="75" type="line"/>
      <point x="318" y="75" type="line"/>
      <point x="318" y="363" type="line"/>
      <point x="238" y="363" type="line"/>
    </contour>
    <component base="che-cy" xOffset="-1"/>
  </outline>
</glyph>
<glyph name="Palochka-cy" format="2">
  <advance width="322"/>
  <unicode hex="04C0"/>
  <anchor x="161" y="0" name="bottom"/>
  <anchor x="218" y="0" name="ogonek"/>
  <anchor x="161" y="700" name="top"/>
  <anchor x="23" y="699" name="topleft"/>
  <outline>
    <contour>
      <point x="104" y="0" type="line"/>
      <point x="218" y="0" type="line"/>
      <point x="218" y="700" type="line"/>
      <point x="104" y="700" type="line"/>
    </contour>
  </outline>
</glyph>
<glyph name="Schwa-cy" format="2">
  <advance width="823"/>
  <unicode hex="04D8"/>
  <anchor x="413" y="700" name="top"/>
  <outline>
    <contour>
      <point x="403" y="-9" type="curve" smooth="yes"/>
      <point x="600" y="-9"/>
      <point x="774" y="128"/>
      <point x="774" y="352" type="curve" smooth="yes"/>
      <point x="774" y="579"/>
      <point x="595" y="709"/>
      <point x="399" y="709" type="curve" smooth="yes"/>
      <point x="297" y="709"/>
      <point x="190" y="673"/>
      <point x="105" y="597" type="curve"/>
      <point x="188" y="523" type="line"/>
      <point x="252" y="580"/>
      <point x="326" y="607"/>
      <point x="397" y="607" type="curve" smooth="yes"/>
      <point x="536" y="607"/>
      <point x="659" y="509"/>
      <point x="659" y="350" type="curve" smooth="yes"/>
      <point x="659" y="195"/>
      <point x="542" y="92"/>
      <point x="403" y="92" type="curve" smooth="yes"/>
      <point x="265" y="92"/>
      <point x="152" y="194"/>
      <point x="154" y="350" type="curve"/>
      <point x="127" y="315" type="line"/>
      <point x="737" y="315" type="line"/>
      <point x="737" y="398" type="line"/>
      <point x="43" y="398" type="line"/>
      <point x="40" y="381"/>
      <point x="39" y="364"/>
      <point x="39" y="347" type="curve" smooth="yes"/>
      <point x="39" y="127"/>
      <point x="207" y="-9"/>
    </contour>
  </outline>
</glyph>
<glyph name="schwa-cy" format="2">
  <advance width="633"/>
  <unicode hex="04D9"/>
  <anchor x="324" y="0" name="bottom"/>
  <anchor x="109" y="532" name="ogonek"/>
  <anchor x="324" y="532" name="top"/>
  <outline>
    <contour>
      <point x="303" y="538" type="curve" smooth="yes"/>
      <point x="213" y="538"/>
      <point x="139" y="508"/>
      <point x="91" y="452" type="curve"/>
      <point x="151" y="381" type="line"/>
      <point x="189" y="422"/>
      <point x="239" y="442"/>
      <point x="300" y="442" type="curve" smooth="yes"/>
      <point x="411" y="442"/>
      <point x="485" y="373"/>
      <point x="485" y="272" type="curve" smooth="yes"/>
      <point x="485" y="254" type="line" smooth="yes"/>
      <point x="485" y="155"/>
      <point x="418" y="87"/>
      <point x="322" y="87" type="curve" smooth="yes"/>
      <point x="226" y="87"/>
      <point x="159" y="155"/>
      <point x="160" y="251" type="curve"/>
      <point x="116" y="225" type="line"/>
      <point x="506" y="225" type="line"/>
      <point x="506" y="304" type="line"/>
      <point x="58" y="304" type="line"/>
      <point x="57" y="293"/>
      <point x="56" y="279"/>
      <point x="56" y="270" type="curve" smooth="yes"/>
      <point x="56" y="105"/>
      <point x="166" y="-6"/>
      <point x="322" y="-6" type="curve" smooth="yes"/>
      <point x="478" y="-6"/>
      <point x="593" y="108"/>
      <point x="593" y="266" type="curve" smooth="yes"/>
      <point x="593" y="425"/>
      <point x="478" y="538"/>
    </contour>
  </outline>
</glyph>
<glyph name="Dzeabkhasian-cy" format="2">
  <advance width="628"/>
  <unicode hex="04E0"/>
  <outline>
    <contour>
      <point x="299" y="-9" type="curve" smooth="yes"/>
      <point x="490" y="-9"/>
      <point x="581" y="89"/>
      <point x="581" y="208" type="curve" smooth="yes"/>
      <point x="581" y="327"/>
      <point x="491" y="410"/>
      <point x="312" y="410" type="curve" smooth="yes"/>
      <point x="276" y="410" type="line"/>
      <point x="326" y="376" type="line"/>
      <point x="548" y="622" type="line"/>
      <point x="548" y="700" type="line"/>
      <point x="58" y="700" type="line"/>
      <point x="58" y="603" type="line"/>
      <point x="461" y="603" type="line"/>
      <point x="451" y="646" type="line"/>
      <point x="229" y="400" type="line"/>
      <point x="229" y="321" type="line"/>
      <point x="291" y="321" type="line" smooth="yes"/>
      <point x="411" y="321"/>
      <point x="466" y="277"/>
      <point x="466" y="208" type="curve" smooth="yes"/>
      <point x="466" y="135"/>
      <point x="404" y="91"/>
      <point x="296" y="91" type="curve" smooth="yes"/>
      <point x="206" y="91"/>
      <point x="123" y="120"/>
      <point x="72" y="164" type="curve"/>
      <point x="31" y="72" type="line"/>
      <point x="89" y="22"/>
      <point x="192" y="-9"/>
    </contour>
  </outline>
</glyph>
<glyph name="Gestrokehook-cy" format="2">
  <advance width="624"/>
  <unicode hex="04FA"/>
  <anchor x="358" y="700" name="top"/>
  <outline>
    <contour>
      <point x="132" y="0" type="line"/>
      <point x="245" y="0" type="line"/>
      <point x="245" y="601" type="line"/>
      <point x="600" y="601" type="line"/>
      <point x="600" y="700" type="line"/>
      <point x="132" y="700" type="line"/>
    </contour>
    <contour>
      <point x="170" y="-201" type="curve" smooth="yes"/>
      <point x="263" y="-201"/>
      <point x="341" y="-143"/>
      <point x="341" y="-34" type="curve" smooth="yes"/>
      <point x="341" y="99" type="line"/>
      <point x="132" y="99" type="line"/>
      <point x="132" y="0" type="line"/>
      <point x="264" y="0" type="line"/>
      <point x="230" y="23" type="line"/>
      <point x="230" y="-21" type="line" smooth="yes"/>
      <point x="230" y="-80"/>
      <point x="194" y="-108"/>
      <point x="150" y="-108" type="curve" smooth="yes"/>
      <point x="127" y="-108"/>
      <point x="102" y="-101"/>
      <point x="78" y="-86" type="curve"/>
      <point x="46" y="-167" type="line"/>
      <point x="87" y="-190"/>
      <point x="130" y="-201"/>
    </contour>
    <contour>
      <point x="26" y="281" type="line"/>
      <point x="533" y="281" type="line"/>
      <point x="533" y="365" type="line"/>
      <point x="26" y="365" type="line"/>
    </contour>
  </outline>
</glyph>
<glyph name="hahook-cy" format="2">
  <advance width="551"/>
  <unicode hex="04FD"/>
  <outline>
    <contour>
      <point x="8" y="0" type="line"/>
      <point x="132" y="0" type="line"/>
      <point x="537" y="532" type="line"/>
      <point x="416" y="532" type="line"/>
      <point x="278" y="351" type="line"/>
      <point x="140" y="532" type="line"/>
      <point x="17" y="532" type="line"/>
      <point x="215" y="272" type="line"/>
    </contour>
    <contour>
      <point x="373" y="-201" type="curve" smooth="yes"/>
      <point x="468" y="-201"/>
      <point x="542" y="-143"/>
      <point x="542" y="-48" type="curve" smooth="yes"/>
      <point x="542" y="43"/>
      <point x="467" y="132"/>
      <point x="316" y="308" type="curve"/>
      <point x="243" y="238" type="line"/>
      <point x="375" y="88"/>
      <point x="432" y="18"/>
      <point x="432" y="-40" type="curve" smooth="yes"/>
      <point x="432" y="-79"/>
      <point x="401" y="-109"/>
      <point x="356" y="-109" type="curve" smooth="yes"/>
      <point x="332" y="-109"/>
      <point x="307" y="-101"/>
      <point x="284" y="-87" type="curve"/>
      <point x="253" y="-170" type="line"/>
      <point x="292" y="-190"/>
      <point x="333" y="-201"/>
    </contour>
  </outline>
</glyph>
<glyph name="Eldescender-cy" format="2">
  <advance width="822"/>
  <unicode hex="052E"/>
  <anchor x="576" y="0" name="#exit"/>
  <anchor x="576" y="0" name="bottomleft"/>
  <outline>
    <contour>
      <point x="81" y="-9" type="curve" smooth="yes"/>
      <point x="225" y="-9"/>
      <point x="267" y="135"/>
      <point x="276" y="412" type="curve" smooth="yes"/>
      <point x="284" y="631" type="line"/>
      <point x="259" y="601" type="line"/>
      <point x="603" y="601" type="line"/>
      <point x="576" y="630" type="line"/>
      <point x="576" y="0" type="line"/>
      <point x="689" y="0" type="line"/>
      <point x="689" y="700" type="line"/>
      <point x="185" y="700" type="line"/>
      <point x="175" y="408" type="line" smooth="yes"/>
      <point x="167" y="201"/>
      <point x="139" y="98"/>
      <point x="53" y="98" type="curve" smooth="yes"/>
      <point x="42" y="98"/>
      <point x="33" y="99"/>
      <point x="22" y="102" type="curve"/>
      <point x="14" y="0" type="line"/>
      <point x="39" y="-6"/>
      <point x="60" y="-9"/>
    </contour>
    <contour>
      <point x="688" y="-151" type="line"/>
      <point x="794" y="-151" type="line"/>
      <point x="794" y="99" type="line"/>
      <point x="576" y="99" type="line"/>
      <point x="576" y="0" type="line"/>
      <point x="716" y="0" type="line"/>
      <point x="688" y="29" type="line"/>
    </contour>
  </outline>
</glyph>
<glyph name="Germandbls" format="2">
  <advance width="767"/>
  <unicode hex="1E9E"/>
  <outline>
    <contour>
      <point x="466" y="-9" type="curve" smooth="yes"/>
      <point x="616" y="-9"/>
      <point x="719" y="66"/>
      <point x="719" y="202" type="curve" smooth="yes"/>
      <point x="719" y="340"/>
      <point x="613" y="415"/>
      <point x="477" y="415" type="curve" smooth="yes"/>
      <point x="449" y="415"/>
      <point x="422" y="412"/>
      <point x="400" y="406" type="curve"/>
      <point x="449" y="339" type="line"/>
      <point x="652" y="567" type="line"/>
      <point x="652" y="641" type="line"/>
      <point x="591" y="686"/>
      <point x="500" y="709"/>
      <point x="412" y="709" type="curve" smooth="yes"/>
      <point x="211" y="709"/>
      <point x="94" y="591"/>
      <point x="94" y="401" type="curve" smooth="yes"/>
      <point x="94" y="0" type="line"/>
      <point x="208" y="0" type="line"/>
      <point x="208" y="398" type="line" smooth="yes"/>
      <point x="208" y="535"/>
      <point x="280" y="612"/>
      <point x="419" y="612" type="curve" smooth="yes"/>
      <point x="488" y="612"/>
      <point x="551" y="593"/>
      <point x="603" y="555" type="curve"/>
      <point x="588" y="633" type="line"/>
      <point x="356" y="369" type="line"/>
      <point x="377" y="315" type="line"/>
      <point x="399" y="322"/>
      <point x="430" y="326"/>
      <point x="458" y="326" type="curve" smooth="yes"/>
      <point x="547" y="326"/>
      <point x="603" y="285"/>
      <point x="603" y="207" type="curve" smooth="yes"/>
      <point x="603" y="128"/>
      <point x="548" y="88"/>
      <point x="459" y="88" type="curve" smooth="yes"/>
      <point x="416" y="88"/>
      <point x="377" y="96"/>
      <point x="345" y="111" type="curve"/>
      <point x="327" y="16" type="line"/>
      <point x="368" y="-1"/>
      <point x="416" y="-9"/>
    </contour>
  </outline>
</glyph>
<glyph name="dagger" format="2">
  <advance width="567"/>
  <unicode hex="2020"/>
  <outline>
    <contour>
      <point x="228" y="-194" type="line"/>
      <point x="338" y="-194" type="line"/>
      <point x="338" y="370" type="line"/>
      <point x="537" y="370" type="line"/>
      <point x="537" y="466" type="line"/>
      <point x="338" y="466" type="line"/>
      <point x="338" y="700" type="line"/>
      <point x="228" y="700" type="line"/>
      <point x="228" y="466" type="line"/>
      <point x="30" y="466" type="line"/>
      <point x="30" y="370" type="line"/>
      <point x="228" y="370" type="line"/>
    </contour>
  </outline>
</glyph>
<glyph name="kip" format="2">
  <advance width="678"/>
  <unicode hex="20AD"/>
  <outline>
    <contour>
      <point x="30" y="313" type="line"/>
      <point x="604" y="313" type="line"/>
      <point x="604" y="387" type="line"/>
      <point x="30" y="387" type="line"/>
    </contour>
    <contour>
      <point x="131" y="0" type="line"/>
      <point x="244" y="0" type="line"/>
      <point x="244" y="700" type="line"/>
      <point x="131" y="700" type="line"/>
    </contour>
    <contour>
      <point x="545" y="0" type="line"/>
      <point x="680" y="0" type="line"/>
      <point x="376" y="350" type="line"/>
      <point x="240" y="350" type="line"/>
    </contour>
    <contour>
      <point x="545" y="700" type="line"/>
      <point x="240" y="350" type="line"/>
      <point x="376" y="350" type="line"/>
      <point x="680" y="700" type="line"/>
    </contour>
  </outline>
</glyph>
<glyph name="angstrom" format="2">
  <advance width="740"/>
  <unicode hex="212B"/>
  <anchor x="370" y="0" name="bottom"/>
  <anchor x="743" y="0" name="ogonek"/>
  <anchor x="370" y="941" name="top"/>
  <anchor x="113" y="700" name="topleft"/>
  <outline>
    <contour>
      <point x="-3" y="0" type="line"/>
      <point x="115" y="0" type="line"/>
      <point x="392" y="637" type="line"/>
      <point x="346" y="637" type="line"/>
      <point x="623" y="0" type="line"/>
      <point x="743" y="0" type="line"/>
      <point x="426" y="700" type="line"/>
      <point x="313" y="700" type="line"/>
    </contour>
    <contour>
      <point x="137" y="168" type="line"/>
      <point x="586" y="168" type="line"/>
      <point x="554" y="260" type="line"/>
      <point x="168" y="260" type="line"/>
    </contour>
    <contour>
      <point x="369" y="762" type="curve" smooth="yes"/>
      <point x="434" y="762"/>
      <point x="483" y="811"/>
      <point x="483" y="873" type="curve" smooth="yes"/>
      <point x="483" y="935"/>
      <point x="434" y="986"/>
      <point x="369" y="986" type="curve" smooth="yes"/>
      <point x="305" y="986"/>
      <point x="256" y="935"/>
      <point x="256" y="873" type="curve" smooth="yes"/>
      <point x="256" y="811"/>
      <point x="305" y="762"/>
    </contour>
    <contour>
      <point x="369" y="808" type="curve" smooth="yes"/>
      <point x="332" y="808"/>
      <point x="305" y="836"/>
      <point x="305" y="873" type="curve" smooth="yes"/>
      <point x="305" y="911"/>
      <point x="333" y="939"/>
      <point x="369" y="939" type="curve" smooth="yes"/>
      <point x="406" y="939"/>
      <point x="434" y="910"/>
      <point x="434" y="873" type="curve" smooth="yes"/>
      <point x="434" y="836"/>
      <point x="407" y="808"/>
    </contour>
  </outline>
</glyph>
<glyph name="estimated" format="2">
  <advance width="876"/>
  <unicode hex="212E"/>
  <outline>
    <contour>
      <point x="438" y="-3" type="curve" smooth="yes"/>
      <point x="563" y="-3"/>
      <point x="678" y="52"/>
      <point x="748" y="134" type="curve"/>
      <point x="691" y="134" type="line"/>
      <point x="631" y="64"/>
      <point x="540" y="18"/>
      <point x="439" y="18" type="curve" smooth="yes"/>
      <point x="345" y="18"/>
      <point x="253" y="53"/>
      <point x="198" y="122" type="curve" smooth="yes"/>
      <point x="194" y="128"/>
      <point x="189" y="135"/>
      <point x="189" y="145" type="curve" smooth="yes"/>
      <point x="189" y="337" type="line"/>
      <point x="189" y="340"/>
      <point x="191" y="341"/>
      <point x="195" y="341" type="curve" smooth="yes"/>
      <point x="830" y="341" type="line"/>
      <point x="830" y="349" type="line"/>
      <point x="830" y="545"/>
      <point x="655" y="703"/>
      <point x="438" y="703" type="curve" smooth="yes"/>
      <point x="222" y="703"/>
      <point x="46" y="545"/>
      <point x="46" y="349" type="curve" smooth="yes"/>
      <point x="46" y="155"/>
      <point x="222" y="-3"/>
    </contour>
    <contour>
      <point x="195" y="360" type="line"/>
      <point x="191" y="360"/>
      <point x="189" y="362"/>
      <point x="189" y="366" type="curve" smooth="yes"/>
      <point x="189" y="555" type="line"/>
      <point x="189" y="565"/>
      <point x="194" y="573"/>
      <point x="199" y="579" type="curve" smooth="yes"/>
      <point x="261" y="641"/>
      <point x="345" y="682"/>
      <point x="439" y="682" type="curve" smooth="yes"/>
      <point x="532" y="682"/>
      <point x="616" y="643"/>
      <point x="677" y="582" type="curve" smooth="yes"/>
      <point x="683" y="577"/>
      <point x="688" y="568"/>
      <point x="688" y="559" type="curve" smooth="yes"/>
      <point x="688" y="366" type="line"/>
      <point x="688" y="362"/>
      <point x="685" y="360"/>
      <point x="682" y="360" type="curve" smooth="yes"/>
    </contour>
  </outline>
</glyph>
<glyph name="upArrow" format="2">
  <advance width="600"/>
  <unicode hex="2191"/>
  <outline>
    <contour>
      <point x="91" y="268" type="line"/>
      <point x="299" y="401" type="line"/>
      <point x="509" y="268" type="line"/>
      <point x="509" y="361" type="line"/>
      <point x="299" y="503" type="line"/>
      <point x="91" y="361" type="line"/>
    </contour>
    <contour>
      <point x="256" y="50" type="line"/>
      <point x="343" y="50" type="line"/>
      <point x="343" y="418" type="line"/>
      <point x="256" y="418" type="line"/>
    </contour>
  </outline>
</glyph>
<glyph name="northEastArrow" format="2">
  <advance width="600"/>
  <unicode hex="2197"/>
  <outline>
    <contour>
      <point x="152" y="419" type="line"/>
      <point x="392" y="364" type="line"/>
      <point x="447" y="119" type="line"/>
      <point x="509" y="185" type="line"/>
      <point x="460" y="436" type="line"/>
      <point x="213" y="485" type="line"/>
    </contour>
    <contour>
      <point x="113" y="149" type="line"/>
      <point x="175" y="82" type="line"/>
      <point x="435" y="342" type="line"/>
      <point x="374" y="409" type="line"/>
    </contour>
  </outline>
</glyph>
<glyph name="radical" format="2">
  <advance width="807"/>
  <unicode hex="221A"/>
  <outline>
    <contour>
      <point x="706" y="742" type="line"/>
      <point x="424" y="-86" type="line"/>
      <point x="447" y="-86" type="line"/>
      <point x="278" y="396" type="line"/>
      <point x="66" y="396" type="line"/>
      <point x="66" y="306" type="line"/>
      <point x="197" y="306" type="line"/>
      <point x="379" y="-194" type="line"/>
      <point x="492" y="-194" type="line"/>
      <point x="810.01" y="742" type="line"/>
    </contour>
  </outline>
</glyph>
<glyph name="rightWhiteTriangle" format="2">
  <advance width="600"/>
  <unicode hex="25B7"/>
  <outline>
    <contour>
      <point x="115" y="479" type="line"/>
      <point x="115" y="53" type="line"/>
      <point x="541" y="266" type="line"/>
    </contour>
    <contour>
      <point x="165" y="394" type="line"/>
      <point x="430" y="266" type="line"/>
      <point x="165" y="138" type="line"/>
    </contour>
  </outline>
</glyph>
<glyph name="lozenge" format="2">
  <advance width="499"/>
  <unicode hex="25CA"/>
  <outline>
    <contour>
      <point x="249" y="13" type="line"/>
      <point x="459" y="330" type="line"/>
      <point x="250" y="644" type="line"/>
      <point x="40" y="330" type="line"/>
    </contour>
    <contour>
      <point x="249" y="136" type="line"/>
      <point x="116" y="330" type="line"/>
      <point x="250" y="523" type="line"/>
      <point x="383" y="330" type="line"/>
    </contour>
  </outline>
</glyph>
<glyph name="Aogonek.loclNAV.ss01" format="2">
  <advance width="799"/>
  <anchor x="399" y="0" name="bottom"/>
  <anchor x="705" y="0" name="ogonek"/>
  <anchor x="399" y="700" name="top"/>
  <anchor x="74" y="700" name="topleft"/>
  <outline>
    <contour>
      <point x="94" y="0" type="line"/>
      <point x="206" y="0" type="line"/>
      <point x="206" y="401" type="line" smooth="yes"/>
      <point x="206" y="540"/>
      <point x="281" y="607"/>
      <point x="399" y="607" type="curve" smooth="yes"/>
      <point x="516" y="607"/>
      <point x="591" y="540"/>
      <point x="591" y="401" type="curve" smooth="yes"/>
      <point x="591" y="0" type="line"/>
      <point x="705" y="0" type="line"/>
      <point x="705" y="390" type="line" smooth="yes"/>
      <point x="705" y="599"/>
      <point x="583" y="709"/>
      <point x="399" y="709" type="curve" smooth="yes"/>
      <point x="216" y="709"/>
      <point x="94" y="599"/>
      <point x="94" y="390" type="curve" smooth="yes"/>
    </contour>
    <contour>
      <point x="416" y="-226" type="curve" smooth="yes"/>
      <point x="451" y="-226"/>
      <point x="485" y="-217"/>
      <point x="510" y="-203" type="curve"/>
      <point x="490" y="-147" type="line"/>
      <point x="474" y="-157"/>
      <point x="450" y="-163"/>
      <point x="429" y="-163" type="curve" smooth="yes"/>
      <point x="394" y="-163"/>
      <point x="369" y="-144"/>
      <point x="369" y="-113" type="curve" smooth="yes"/>
      <point x="369" y="-79"/>
      <point x="396" y="-52"/>
      <point x="465" y="-23" type="curve"/>
      <point x="439" y="26" type="line"/>
      <point x="331" y="-11"/>
      <point x="292" y="-69"/>
      <point x="292" y="-123" type="curve" smooth="yes"/>
      <point x="292" y="-182"/>
      <point x="338" y="-226"/>
    </contour>
    <contour>
      <point x="166" y="186" type="line"/>
      <point x="632" y="186" type="line"/>
      <point x="632" y="285" type="line"/>
      <point x="166" y="285" type="line"/>
    </contour>
  </outline>
</glyph>
<glyph name="Eogonek.ss01" format="2">
  <advance width="649"/>
  <anchor x="353" y="0" name="bottom"/>
  <anchor x="353" y="700" name="top"/>
  <anchor x="37" y="700" name="topleft"/>
  <outline>
    <contour>
      <point x="528" y="-226" type="curve" smooth="yes"/>
      <point x="562" y="-226"/>
      <point x="596" y="-217"/>
      <point x="621" y="-203" type="curve"/>
      <point x="601" y="-147" type="line"/>
      <point x="585" y="-157"/>
      <point x="561" y="-163"/>
      <point x="540" y="-163" type="curve" smooth="yes"/>
      <point x="505" y="-163"/>
      <point x="480" y="-145"/>
      <point x="480" y="-111" type="curve" smooth="yes"/>
      <point x="480" y="-68"/>
      <point x="509" y="-11"/>
      <point x="633" y="69" type="curve"/>
      <point x="595" y="159" type="line"/>
      <point x="539" y="117"/>
      <point x="450" y="89"/>
      <point x="359" y="89" type="curve" smooth="yes"/>
      <point x="224" y="89"/>
      <point x="163" y="134"/>
      <point x="163" y="201" type="curve" smooth="yes"/>
      <point x="163" y="272"/>
      <point x="225" y="305"/>
      <point x="322" y="305" type="curve" smooth="yes"/>
      <point x="510" y="305" type="line"/>
      <point x="510" y="403" type="line"/>
      <point x="328" y="403" type="line" smooth="yes"/>
      <point x="240" y="403"/>
      <point x="193" y="438"/>
      <point x="193" y="502" type="curve" smooth="yes"/>
      <point x="193" y="565"/>
      <point x="251" y="611"/>
      <point x="373" y="611" type="curve" smooth="yes"/>
      <point x="443" y="611"/>
      <point x="509" y="597"/>
      <point x="572" y="564" type="curve"/>
      <point x="605" y="656" type="line"/>
      <point x="544" y="689"/>
      <point x="457" y="709"/>
      <point x="369" y="709" type="curve" smooth="yes"/>
      <point x="172" y="709"/>
      <point x="78" y="617"/>
      <point x="78" y="510" type="curve" smooth="yes"/>
      <point x="78" y="413"/>
      <point x="148" y="339"/>
      <point x="249" y="339" type="curve"/>
      <point x="244" y="371" type="line"/>
      <point x="141" y="371"/>
      <point x="48" y="303"/>
      <point x="48" y="193" type="curve" smooth="yes"/>
      <point x="48" y="76"/>
      <point x="152" y="-9"/>
      <point x="354" y="-9" type="curve" smooth="yes"/>
      <point x="411" y="-9"/>
      <point x="463" y="-1"/>
      <point x="511" y="14" type="curve"/>
      <point x="493" y="34" type="line"/>
      <point x="427" y="-13"/>
      <point x="403" y="-68"/>
      <point x="403" y="-122" type="curve" smooth="yes"/>
      <point x="403" y="-183"/>
      <point x="449" y="-226"/>
    </contour>
  </outline>
</glyph>
<glyph name="T.ss01" format="2">
  <advance width="607"/>
  <anchor x="304" y="0" name="bottom"/>
  <anchor x="247" y="0" name="bottomleft"/>
  <anchor x="303" y="326" name="center"/>
  <anchor x="306" y="700" name="top"/>
  <outline>
    <contour>
      <point x="34" y="537" type="line"/>
      <point x="118" y="585"/>
      <point x="207" y="608"/>
      <point x="303" y="608" type="curve" smooth="yes"/>
      <point x="400" y="608"/>
      <point x="490" y="585"/>
      <point x="573" y="537" type="curve"/>
      <point x="613" y="627" type="line"/>
      <point x="520" y="683"/>
      <point x="411" y="709"/>
      <point x="303" y="709" type="curve" smooth="yes"/>
      <point x="195" y="709"/>
      <point x="88" y="683"/>
      <point x="-6" y="627" type="curve"/>
    </contour>
    <contour>
      <point x="247" y="0" type="line"/>
      <point x="361" y="0" type="line"/>
      <point x="361" y="649" type="line"/>
      <point x="247" y="649" type="line"/>
    </contour>
  </outline>
</glyph>
<glyph name="U.ss01" format="2">
  <advance width="794"/>
  <anchor x="392" y="0" name="bottom"/>
  <anchor x="694" y="0" name="ogonek"/>
  <anchor x="392" y="700" name="top"/>
  <anchor x="651" y="700" name="topright"/>
  <outline>
    <contour>
      <point x="360" y="-9" type="curve" smooth="yes"/>
      <point x="481" y="-9"/>
      <point x="572" y="39"/>
      <point x="617" y="152" type="curve"/>
      <point x="584" y="170" type="line"/>
      <point x="584" y="0" type="line"/>
      <point x="694" y="0" type="line"/>
      <point x="694" y="700" type="line"/>
      <point x="580" y="700" type="line"/>
      <point x="580" y="304" type="line" smooth="yes"/>
      <point x="580" y="160"/>
      <point x="499" y="93"/>
      <point x="384" y="93" type="curve" smooth="yes"/>
      <point x="278" y="93"/>
      <point x="208" y="158"/>
      <point x="208" y="290" type="curve" smooth="yes"/>
      <point x="208" y="700" type="line"/>
      <point x="94" y="700" type="line"/>
      <point x="94" y="286" type="line" smooth="yes"/>
      <point x="94" y="95"/>
      <point x="196" y="-9"/>
    </contour>
  </outline>
</glyph>
<glyph name="Udieresis.alt.BRACKET.133" format="2">
  <advance width="790"/>
  <outline>
    <contour>
      <point x="395" y="-9" type="curve" smooth="yes"/>
      <point x="583" y="-9"/>
      <point x="696" y="100"/>
      <point x="696" y="304" type="curve" smooth="yes"/>
      <point x="696" y="700" type="line"/>
      <point x="584" y="700" type="line"/>
      <point x="584" y="308" type="line" smooth="yes"/>
      <point x="584" y="159"/>
      <point x="516" y="93"/>
      <point x="396" y="93" type="curve" smooth="yes"/>
      <point x="276" y="93"/>
      <point x="208" y="159"/>
      <point x="208" y="308" type="curve" smooth="yes"/>
      <point x="208" y="700" type="line"/>
      <point x="94" y="700" type="line"/>
      <point x="94" y="304" type="line" smooth="yes"/>
      <point x="94" y="100"/>
      <point x="207" y="-9"/>
    </contour>
    <contour>
      <point x="396" y="461" type="curve" smooth="yes"/>
      <point x="427" y="461"/>
      <point x="452" y="484"/>
      <point x="452" y="517" type="curve" smooth="yes"/>
      <point x="452" y="550"/>
      <point x="427" y="573"/>
      <point x="396" y="573" type="curve" smooth="yes"/>
      <point x="365" y="573"/>
      <point x="340" y="550"/>
      <point x="340" y="517" type="curve" smooth="yes"/>
      <point x="340" y="484"/>
      <point x="365" y="461"/>
    </contour>
    <contour>
      <point x="396" y="594" type="curve" smooth="yes"/>
      <point x="427" y="594"/>
      <point x="452" y="617"/>
      <point x="452" y="650" type="curve" smooth="yes"/>
      <point x="452" y="683"/>
      <point x="427" y="706"/>
      <point x="396" y="706" type="curve" smooth="yes"/>
      <point x="365" y="706"/>
      <point x="340" y="683"/>
      <point x="340" y="650" type="curve" smooth="yes"/>
      <point x="340" y="617"/>
      <point x="365" y="594"/>
    </contour>
  </outline>
</glyph>
<glyph name="adieresis.sc.alt" format="2">
  <advance width="624"/>
  <outline>
    <contour>
      <point x="116" y="466" type="curve" smooth="yes"/>
      <point x="146" y="466"/>
      <point x="170" y="489"/>
      <point x="170" y="522" type="curve" smooth="yes"/>
      <point x="170" y="555"/>
      <point x="146" y="579"/>
      <point x="116" y="579" type="curve" smooth="yes"/>
      <point x="86" y="579"/>
      <point x="62" y="555"/>
      <point x="62" y="522" type="curve" smooth="yes"/>
      <point x="62" y="489"/>
      <point x="86" y="466"/>
    </contour>
    <contour>
      <point x="508" y="466" type="curve" smooth="yes"/>
      <point x="538" y="466"/>
      <point x="562" y="489"/>
      <point x="562" y="522" type="curve" smooth="yes"/>
      <point x="562" y="555"/>
      <point x="538" y="579"/>
      <point x="508" y="579" type="curve" smooth="yes"/>
      <point x="478" y="579"/>
      <point x="454" y="555"/>
      <point x="454" y="522" type="curve" smooth="yes"/>
      <point x="454" y="489"/>
      <point x="478" y="466"/>
    </contour>
    <contour>
      <point x="-3" y="0" type="line"/>
      <point x="106" y="0" type="line"/>
      <point x="331" y="512" type="line"/>
      <point x="293" y="512" type="line"/>
      <point x="516" y="0" type="line"/>
      <point x="627" y="0" type="line"/>
      <point x="367" y="570" type="line"/>
      <point x="257" y="570" type="line"/>
    </contour>
    <contour>
      <point x="121" y="130" type="line"/>
      <point x="486" y="130" type="line"/>
      <point x="456" y="216" type="line"/>
      <point x="151" y="216" type="line"/>
    </contour>
  </outline>
</glyph>
<glyph name="aogonek.loclNAV.sc" format="2">
  <advance width="624"/>
  <anchor x="627" y="0" name="ogonek"/>
  <anchor x="312" y="570" name="top"/>
  <outline>
    <contour>
      <point x="334" y="-226" type="curve" smooth="yes"/>
      <point x="369" y="-226"/>
      <point x="403" y="-217"/>
      <point x="428" y="-203" type="curve"/>
      <point x="408" y="-147" type="line"/>
      <point x="392" y="-157"/>
      <point x="368" y="-163"/>
      <point x="348" y="-163" type="curve" smooth="yes"/>
      <point x="312" y="-163"/>
      <point x="287" y="-143"/>
      <point x="287" y="-112" type="curve" smooth="yes"/>
      <point x="287" y="-84"/>
      <point x="307" y="-56"/>
      <point x="380" y="-36" type="curve"/>
      <point x="357" y="16" type="line"/>
      <point x="249" y="-11"/>
      <point x="210" y="-71"/>
      <point x="210" y="-124" type="curve" smooth="yes"/>
      <point x="210" y="-180"/>
      <point x="255" y="-226"/>
    </contour>
    <contour>
      <point x="-3" y="0" type="line"/>
      <point x="106" y="0" type="line"/>
      <point x="331" y="512" type="line"/>
      <point x="293" y="512" type="line"/>
      <point x="516" y="0" type="line"/>
      <point x="627" y="0" type="line"/>
      <point x="367" y="570" type="line"/>
      <point x="257" y="570" type="line"/>
    </contour>
    <contour>
      <point x="121" y="129" type="line"/>
      <point x="486" y="129" type="line"/>
      <point x="456" y="217" type="line"/>
      <point x="151" y="217" type="line"/>
    </contour>
  </outline>
</glyph>
<glyph name="aogonek.loclNAV.sc.ss01" format="2">
  <advance width="688"/>
  <anchor x="602" y="0" name="ogonek"/>
  <anchor x="344" y="570" name="top"/>
  <anchor x="73" y="570" name="topleft"/>
  <outline>
    <contour>
      <point x="86" y="0" type="line"/>
      <point x="197" y="0" type="line"/>
      <point x="197" y="329" type="line" smooth="yes"/>
      <point x="197" y="431"/>
      <point x="253" y="483"/>
      <point x="344" y="483" type="curve" smooth="yes"/>
      <point x="435" y="483"/>
      <point x="491" y="431"/>
      <point x="491" y="329" type="curve" smooth="yes"/>
      <point x="491" y="0" type="line"/>
      <point x="602" y="0" type="line"/>
      <point x="602" y="315" type="line" smooth="yes"/>
      <point x="602" y="486"/>
      <point x="497" y="579"/>
      <point x="344" y="579" type="curve" smooth="yes"/>
      <point x="191" y="579"/>
      <point x="86" y="486"/>
      <point x="86" y="315" type="curve" smooth="yes"/>
    </contour>
    <contour>
      <point x="363" y="-226" type="curve" smooth="yes"/>
      <point x="398" y="-226"/>
      <point x="432" y="-217"/>
      <point x="457" y="-203" type="curve"/>
      <point x="437" y="-147" type="line"/>
      <point x="421" y="-157"/>
      <point x="397" y="-163"/>
      <point x="377" y="-163" type="curve" smooth="yes"/>
      <point x="341" y="-163"/>
      <point x="316" y="-143"/>
      <point x="316" y="-112" type="curve" smooth="yes"/>
      <point x="316" y="-84"/>
      <point x="336" y="-56"/>
      <point x="409" y="-36" type="curve"/>
      <point x="386" y="16" type="line"/>
      <point x="278" y="-11"/>
      <point x="239" y="-71"/>
      <point x="239" y="-124" type="curve" smooth="yes"/>
      <point x="239" y="-180"/>
      <point x="284" y="-226"/>
    </contour>
    <contour>
      <point x="157" y="144" type="line"/>
      <point x="531" y="144" type="line"/>
      <point x="531" y="236" type="line"/>
      <point x="157" y="236" type="line"/>
    </contour>
  </outline>
</glyph>
<glyph name="aogonek.loclNAV.ss01" format="2">
  <advance width="684"/>
  <anchor x="338" y="0" name="bottom"/>
  <anchor x="597" y="0" name="ogonek"/>
  <anchor x="338" y="532" name="top"/>
  <outline>
    <contour>
      <point x="320" y="90" type="curve" smooth="yes"/>
      <point x="224" y="90"/>
      <point x="151" y="159"/>
      <point x="151" y="266" type="curve" smooth="yes"/>
      <point x="151" y="373"/>
      <point x="224" y="442"/>
      <point x="320" y="442" type="curve" smooth="yes"/>
      <point x="416" y="442"/>
      <point x="489" y="373"/>
      <point x="489" y="266" type="curve" smooth="yes"/>
      <point x="489" y="159"/>
      <point x="416" y="90"/>
    </contour>
    <contour>
      <point x="492" y="0" type="line"/>
      <point x="597" y="0" type="line"/>
      <point x="597" y="532" type="line"/>
      <point x="487" y="532" type="line"/>
      <point x="487" y="400" type="line"/>
      <point x="497" y="267" type="line"/>
      <point x="492" y="134" type="line"/>
    </contour>
    <contour>
      <point x="349" y="-226" type="curve" smooth="yes"/>
      <point x="383" y="-226"/>
      <point x="417" y="-217"/>
      <point x="442" y="-203" type="curve"/>
      <point x="422" y="-147" type="line"/>
      <point x="406" y="-157"/>
      <point x="382" y="-163"/>
      <point x="361" y="-163" type="curve" smooth="yes"/>
      <point x="326" y="-163"/>
      <point x="301" y="-146"/>
      <point x="301" y="-110" type="curve" smooth="yes"/>
      <point x="301" y="-66"/>
      <point x="339" y="-41"/>
      <point x="386" y="-12" type="curve" smooth="yes"/>
      <point x="458" y="32"/>
      <point x="550" y="89"/>
      <point x="550" y="264" type="curve" smooth="yes"/>
      <point x="550" y="451"/>
      <point x="444" y="538"/>
      <point x="307" y="538" type="curve" smooth="yes"/>
      <point x="155" y="538"/>
      <point x="40" y="430"/>
      <point x="40" y="266" type="curve" smooth="yes"/>
      <point x="40" y="102"/>
      <point x="154" y="-6"/>
      <point x="311" y="-6" type="curve" smooth="yes"/>
      <point x="332" y="-6"/>
      <point x="353" y="-4"/>
      <point x="373" y="1" type="curve"/>
      <point x="371" y="43" type="line"/>
      <point x="266" y="-7"/>
      <point x="224" y="-66"/>
      <point x="224" y="-122" type="curve" smooth="yes"/>
      <point x="224" y="-183"/>
      <point x="270" y="-226"/>
    </contour>
  </outline>
</glyph>
<glyph name="brevecomb-cy" format="2">
  <anchor x="223" y="532" name="_top"/>
  <outline>
    <contour>
      <point x="223" y="598" type="curve" smooth="yes"/>
      <point x="325" y="598"/>
      <point x="384" y="647"/>
      <point x="386" y="741" type="curve"/>
      <point x="310" y="741" type="line"/>
      <point x="309" y="692"/>
      <point x="275" y="661"/>
      <point x="222" y="661" type="curve" smooth="yes"/>
      <point x="169" y="661"/>
      <point x="136" y="692"/>
      <point x="135" y="741" type="curve"/>
      <point x="61" y="741" type="line"/>
      <point x="62" y="647"/>
      <point x="121" y="598"/>
    </contour>
  </outline>
</glyph>
<glyph name="brevecomb.loclVIET" format="2">
  <anchor x="300" y="532" name="_top"/>
  <anchor x="300" y="661" name="top"/>
  <outline>
    <contour>
      <point x="300" y="601" type="curve" smooth="yes"/>
      <point x="392" y="601"/>
      <point x="460" y="642"/>
      <point x="468" y="711" type="curve"/>
      <point x="395" y="711" type="line"/>
      <point x="391" y="680"/>
      <point x="352" y="660"/>
      <point x="300" y="660" type="curve" smooth="yes"/>
      <point x="248" y="660"/>
      <point x="209" y="680"/>
      <point x="205" y="711" type="curve"/>
      <point x="132" y="711" type="line"/>
      <point x="140" y="642"/>
      <point x="208" y="601"/>
    </contour>
  </outline>
</glyph>
<glyph name="breveinvertedcomb.narrow" format="2">
  <anchor x="300" y="532" name="_top"/>
  <anchor x="300" y="699" name="top"/>
  <outline>
    <contour>
      <point x="157" y="607" type="curve"/>
      <point x="227" y="607" type="line"/>
      <point x="227" y="655"/>
      <point x="255" y="685"/>
      <point x="300" y="685" type="curve" smooth="yes"/>
      <point x="345" y="685"/>
      <point x="373" y="655"/>
      <point x="373" y="607" type="curve"/>
      <point x="443" y="607" type="line"/>
      <point x="442" y="694"/>
      <point x="381" y="747"/>
      <point x="300" y="747" type="curve" smooth="yes"/>
      <point x="219" y="747"/>
      <point x="158" y="694"/>
    </contour>
  </outline>
</glyph>
<glyph name="che-cy.loclBGR" format="2">
  <advance width="616"/>
  <anchor x="410" y="0" name="bottomleft"/>
  <outline>
    <contour>
      <point x="420" y="249" type="curve"/>
      <point x="417" y="355" type="line"/>
      <point x="417" y="289"/>
      <point x="355" y="253"/>
      <point x="277" y="253" type="curve" smooth="yes"/>
      <point x="200" y="253"/>
      <point x="152" y="286"/>
      <point x="152" y="358" type="curve" smooth="yes"/>
      <point x="152" y="532" type="line"/>
      <point x="42" y="532" type="line"/>
      <point x="42" y="354" type="line" smooth="yes"/>
      <point x="42" y="224"/>
      <point x="120" y="165"/>
      <point x="246" y="165" type="curve" smooth="yes"/>
      <point x="337" y="165"/>
      <point x="399" y="197"/>
    </contour>
    <contour>
      <point x="417" y="0" type="line"/>
      <point x="527" y="0" type="line"/>
      <point x="527" y="532" type="line"/>
      <point x="417" y="532" type="line"/>
    </contour>
  </outline>
</glyph>
<glyph name="circumflexcomb.narrow" format="2">
  <anchor x="300" y="532" name="_top"/>
  <anchor x="300" y="699" name="top"/>
  <outline>
    <contour>
      <point x="139" y="607" type="line"/>
      <point x="231" y="607" type="line"/>
      <point x="341" y="720" type="line"/>
      <point x="259" y="720" type="line"/>
      <point x="369" y="607" type="line"/>
      <point x="461" y="607" type="line"/>
      <point x="350" y="741" type="line"/>
      <point x="250" y="741" type="line"/>
    </contour>
  </outline>
</glyph>
<glyph name="colonsign.BRACKET.179" format="2">
  <advance width="725"/>
  <outline>
    <contour>
      <point x="418" y="-9" type="curve" smooth="yes"/>
      <point x="530" y="-9"/>
      <point x="626" y="30"/>
      <point x="690" y="105" type="curve"/>
      <point x="616" y="177" type="line"/>
      <point x="564" y="120"/>
      <point x="499" y="93"/>
      <point x="424" y="93" type="curve" smooth="yes"/>
      <point x="272" y="93"/>
      <point x="161" y="201"/>
      <point x="161" y="350" type="curve" smooth="yes"/>
      <point x="161" y="499"/>
      <point x="272" y="607"/>
      <point x="424" y="607" type="curve" smooth="yes"/>
      <point x="499" y="607"/>
      <point x="564" y="580"/>
      <point x="616" y="524" type="curve"/>
      <point x="690" y="596" type="line"/>
      <point x="626" y="670"/>
      <point x="530" y="709"/>
      <point x="418" y="709" type="curve" smooth="yes"/>
      <point x="205" y="709"/>
      <point x="46" y="558"/>
      <point x="46" y="350" type="curve" smooth="yes"/>
      <point x="46" y="142"/>
      <point x="205" y="-9"/>
    </contour>
    <contour>
      <point x="169" y="-120" type="line"/>
      <point x="237" y="-120" type="line"/>
      <point x="281" y="55" type="line"/>
      <point x="225" y="102" type="line"/>
    </contour>
    <contour>
      <point x="321" y="-120" type="line"/>
      <point x="389" y="-120" type="line"/>
      <point x="430" y="42" type="line"/>
      <point x="362" y="42" type="line"/>
    </contour>
    <contour>
      <point x="363" y="644" type="line"/>
      <point x="431" y="644" type="line"/>
      <point x="476" y="820" type="line"/>
      <point x="408" y="820" type="line"/>
    </contour>
    <contour>
      <point x="515" y="644" type="line"/>
      <point x="583" y="644" type="line"/>
      <point x="628" y="820" type="line"/>
      <point x="560" y="820" type="line"/>
    </contour>
  </outline>
</glyph>
<glyph name="dotaccentcomb.loclVIET" format="2">
  <anchor x="300" y="532" name="_top"/>
  <anchor x="300" y="683" name="top"/>
  <outline>
    <contour>
      <point x="300" y="620" type="curve" smooth="yes"/>
      <point x="331" y="620"/>
      <point x="356" y="643"/>
      <point x="356" y="676" type="curve" smooth="yes"/>
      <point x="356" y="709"/>
      <point x="331" y="732"/>
      <point x="300" y="732" type="curve" smooth="yes"/>
      <point x="269" y="732"/>
      <point x="244" y="709"/>
      <point x="244" y="676" type="curve" smooth="yes"/>
      <point x="244" y="643"/>
      <point x="269" y="620"/>
    </contour>
  </outline>
</glyph>
<glyph name="ezh.sc" format="2">
  <advance width="563"/>
  <anchor x="274" y="0" name="bottom"/>
  <anchor x="274" y="570" name="top"/>
  <outline>
    <contour>
      <point x="267" y="-8" type="curve" smooth="yes"/>
      <point x="436" y="-8"/>
      <point x="515" y="74"/>
      <point x="515" y="172" type="curve" smooth="yes"/>
      <point x="515" y="269"/>
      <point x="437" y="337"/>
      <point x="282" y="337" type="curve" smooth="yes"/>
      <point x="249" y="337" type="line"/>
      <point x="298" y="305" type="line"/>
      <point x="486" y="497" type="line"/>
      <point x="486" y="570" type="line"/>
      <point x="59" y="570" type="line"/>
      <point x="59" y="479" type="line"/>
      <point x="402" y="479" type="line"/>
      <point x="392" y="519" type="line"/>
      <point x="205" y="328" type="line"/>
      <point x="205" y="254" type="line"/>
      <point x="261" y="254" type="line" smooth="yes"/>
      <point x="359" y="254"/>
      <point x="403" y="222"/>
      <point x="403" y="172" type="curve" smooth="yes"/>
      <point x="403" y="118"/>
      <point x="352" y="86"/>
      <point x="264" y="86" type="curve" smooth="yes"/>
      <point x="190" y="86"/>
      <point x="119" y="107"/>
      <point x="74" y="142" type="curve"/>
      <point x="35" y="55" type="line"/>
      <point x="87" y="15"/>
      <point x="176" y="-8"/>
    </contour>
  </outline>
</glyph>
<glyph name="ii-cy.ss01" format="2">
  <advance width="672"/>
  <anchor x="328" y="0" name="bottom"/>
  <anchor x="478" y="0" name="bottomleft"/>
  <anchor x="580" y="0" name="bottomright"/>
  <anchor x="583" y="0" name="ogonek"/>
  <anchor x="327" y="532" name="top"/>
  <anchor x="529" y="532" name="topright"/>
  <outline>
    <contour>
      <point x="304" y="-6" type="curve" smooth="yes"/>
      <point x="386" y="-6"/>
      <point x="460" y="31"/>
      <point x="496" y="98" type="curve"/>
      <point x="478" y="142" type="line"/>
      <point x="478" y="0" type="line"/>
      <point x="583" y="0" type="line"/>
      <point x="583" y="532" type="line"/>
      <point x="473" y="532" type="line"/>
      <point x="473" y="260" type="line" smooth="yes"/>
      <point x="473" y="149"/>
      <point x="411" y="92"/>
      <point x="317" y="92" type="curve" smooth="yes"/>
      <point x="232" y="92"/>
      <point x="183" y="141"/>
      <point x="183" y="240" type="curve" smooth="yes"/>
      <point x="183" y="532" type="line"/>
      <point x="73" y="532" type="line"/>
      <point x="73" y="227" type="line" smooth="yes"/>
      <point x="73" y="68"/>
      <point x="166" y="-6"/>
    </contour>
  </outline>
</glyph>
<glyph name="one.tosf" format="2">
  <advance width="700"/>
  <outline>
    <contour>
      <point x="433" y="45" type="line"/>
      <point x="433" y="600" type="line"/>
      <point x="155" y="600" type="line"/>
      <point x="155" y="501" type="line"/>
      <point x="370" y="501" type="line"/>
      <point x="319" y="555" type="line"/>
      <point x="319" y="45" type="line"/>
      <point x="370" y="99" type="line"/>
      <point x="141" y="99" type="line"/>
      <point x="141" y="0" type="line"/>
      <point x="593" y="0" type="line"/>
      <point x="593" y="99" type="line"/>
      <point x="382" y="99" type="line"/>
    </contour>
  </outline>
</glyph>
<glyph name="p.sc" format="2">
  <advance width="626"/>
  <outline>
    <contour>
      <point x="92" y="0" type="line"/>
      <point x="203" y="0" type="line"/>
      <point x="203" y="215" type="line"/>
      <point x="154" y="163" type="line"/>
      <point x="331" y="163" type="line" smooth="yes"/>
      <point x="482" y="163"/>
      <point x="578" y="238"/>
      <point x="578" y="367" type="curve" smooth="yes"/>
      <point x="578" y="496"/>
      <point x="482" y="570"/>
      <point x="331" y="570" type="curve" smooth="yes"/>
      <point x="92" y="570" type="line"/>
    </contour>
    <contour>
      <point x="203" y="202" type="line"/>
      <point x="203" y="531" type="line"/>
      <point x="162" y="478" type="line"/>
      <point x="324" y="478" type="line" smooth="yes"/>
      <point x="417" y="478"/>
      <point x="466" y="439"/>
      <point x="466" y="367" type="curve" smooth="yes"/>
      <point x="466" y="295"/>
      <point x="417" y="255"/>
      <point x="324" y="255" type="curve" smooth="yes"/>
      <point x="162" y="255" type="line"/>
    </contour>
  </outline>
</glyph>
<glyph name="period.sc" format="2">
  <advance width="240"/>
  <outline>
    <contour>
      <point x="120" y="-6" type="curve" smooth="yes"/>
      <point x="162" y="-6"/>
      <point x="192" y="26"/>
      <point x="192" y="65" type="curve" smooth="yes"/>
      <point x="192" y="105"/>
      <point x="162" y="136"/>
      <point x="120" y="136" type="curve" smooth="yes"/>
      <point x="78" y="136"/>
      <point x="48" y="105"/>
      <point x="48" y="65" type="curve" smooth="yes"/>
      <point x="48" y="26"/>
      <point x="78" y="-6"/>
    </contour>
  </outline>
</glyph>
<glyph name="periodcentered.loclCAT" format="2">
  <advance width="139"/>
  <anchor x="106" y="281" name="_dot"/>
  <outline>
    <contour>
      <point x="106" y="217" type="curve" smooth="yes"/>
      <point x="142" y="217"/>
      <point x="169" y="245"/>
      <point x="169" y="280" type="curve" smooth="yes"/>
      <point x="169" y="315"/>
      <point x="142" y="343"/>
      <point x="106" y="343" type="curve" smooth="yes"/>
      <point x="70" y="343"/>
      <point x="43" y="315"/>
      <point x="43" y="280" type="curve" smooth="yes"/>
      <point x="43" y="245"/>
      <point x="70" y="217"/>
    </contour>
  </outline>
</glyph>
<glyph name="q.sc.ss01.BRACKET.170" format="2">
  <advance width="708"/>
  <outline>
    <contour>
      <point x="299" y="-110" type="line"/>
      <point x="410" y="-110" type="line"/>
      <point x="410" y="12" type="line"/>
      <point x="299" y="12" type="line"/>
    </contour>
    <contour>
      <point x="354" y="-9" type="curve" smooth="yes"/>
      <point x="534" y="-9"/>
      <point x="666" y="116"/>
      <point x="666" y="285" type="curve" smooth="yes"/>
      <point x="666" y="454"/>
      <point x="534" y="579"/>
      <point x="354" y="579" type="curve" smooth="yes"/>
      <point x="175" y="579"/>
      <point x="42" y="454"/>
      <point x="42" y="285" type="curve" smooth="yes"/>
      <point x="42" y="116"/>
      <point x="175" y="-9"/>
    </contour>
    <contour>
      <point x="354" y="87" type="curve" smooth="yes"/>
      <point x="239" y="87"/>
      <point x="154" y="170"/>
      <point x="154" y="285" type="curve" smooth="yes"/>
      <point x="154" y="400"/>
      <point x="239" y="483"/>
      <point x="354" y="483" type="curve" smooth="yes"/>
      <point x="469" y="483"/>
      <point x="554" y="400"/>
      <point x="554" y="285" type="curve" smooth="yes"/>
      <point x="554" y="170"/>
      <point x="469" y="87"/>
    </contour>
  </outline>
</glyph>
<glyph name="quoteleft.sc" format="2">
  <advance width="235"/>
  <outline>
    <contour>
      <point x="175" y="570" type="line"/>
      <point x="104" y="570" type="line"/>
      <point x="62" y="457" type="line"/>
      <point x="46" y="415"/>
      <point x="43" y="400"/>
      <point x="43" y="381" type="curve" smooth="yes"/>
      <point x="43" y="338"/>
      <point x="74" y="307"/>
      <point x="117" y="307" type="curve" smooth="yes"/>
      <point x="158" y="307"/>
      <point x="190" y="338"/>
      <point x="190" y="381" type="curve" smooth="yes"/>
      <point x="190" y="423"/>
      <point x="159" y="452"/>
      <point x="116" y="452" type="curve"/>
      <point x="130" y="385" type="line"/>
    </contour>
  </outline>
</glyph>
<glyph name="quotesinglbase.sc" format="2">
  <advance width="235"/>
  <outline>
    <contour>
      <point x="60" y="-122" type="line"/>
      <point x="131" y="-122" type="line"/>
      <point x="173" y="-11" type="line"/>
      <point x="190" y="33"/>
      <point x="192" y="48"/>
      <point x="192" y="68" type="curve" smooth="yes"/>
      <point x="192" y="110"/>
      <point x="161" y="141"/>
      <point x="119" y="141" type="curve" smooth="yes"/>
      <point x="77" y="141"/>
      <point x="45" y="110"/>
      <point x="45" y="68" type="curve" smooth="yes"/>
      <point x="45" y="25"/>
      <point x="77" y="-4"/>
      <point x="120" y="-4" type="curve"/>
      <point x="105" y="63" type="line"/>
    </contour>
  </outline>
</glyph>
<glyph name="schwa.ss01" format="2">
  <advance width="616"/>
  <anchor x="309" y="0" name="bottom"/>
  <anchor x="171" y="532" name="ogonek"/>
  <anchor x="309" y="532" name="top"/>
  <outline>
    <contour>
      <point x="286" y="538" type="curve" smooth="yes"/>
      <point x="196" y="538"/>
      <point x="122" y="508"/>
      <point x="75" y="452" type="curve"/>
      <point x="134" y="381" type="line"/>
      <point x="173" y="422"/>
      <point x="222" y="442"/>
      <point x="283" y="442" type="curve" smooth="yes"/>
      <point x="396" y="442"/>
      <point x="469" y="375"/>
      <point x="469" y="260" type="curve" smooth="yes"/>
      <point x="469" y="154"/>
      <point x="402" y="87"/>
      <point x="306" y="87" type="curve" smooth="yes"/>
      <point x="210" y="87"/>
      <point x="143" y="155"/>
      <point x="144" y="251" type="curve"/>
      <point x="104" y="195" type="line"/>
      <point x="487" y="268" type="line"/>
      <point x="484" y="346" type="line"/>
      <point x="40" y="260" type="line"/>
      <point x="42" y="95"/>
      <point x="159" y="-6"/>
      <point x="306" y="-6" type="curve" smooth="yes"/>
      <point x="462" y="-6"/>
      <point x="576" y="108"/>
      <point x="576" y="266" type="curve" smooth="yes"/>
      <point x="576" y="425"/>
      <point x="461" y="538"/>
    </contour>
  </outline>
</glyph>
<glyph name="seven.osf" format="2">
  <advance width="603"/>
  <outline>
    <contour>
      <point x="166" y="-100" type="line"/>
      <point x="287" y="-100" type="line"/>
      <point x="565" y="522" type="line"/>
      <point x="565" y="600" type="line"/>
      <point x="29" y="600" type="line"/>
      <point x="29" y="379" type="line"/>
      <point x="139" y="379" type="line"/>
      <point x="139" y="557" type="line"/>
      <point x="81" y="501" type="line"/>
      <point x="488" y="501" type="line"/>
      <point x="459" y="553" type="line"/>
    </contour>
  </outline>
</glyph>
<glyph name="six.dnom" format="2">
  <advance width="430"/>
  <outline>
    <contour>
      <point x="233" y="-6" type="curve" smooth="yes"/>
      <point x="330" y="-6"/>
      <point x="400" y="48"/>
      <point x="400" y="129" type="curve" smooth="yes"/>
      <point x="400" y="205"/>
      <point x="333" y="256"/>
      <point x="242" y="256" type="curve" smooth="yes"/>
      <point x="169" y="256"/>
      <point x="115" y="225"/>
      <point x="100" y="187" type="curve"/>
      <point x="120" y="154" type="line"/>
      <point x="115" y="174"/>
      <point x="113" y="196"/>
      <point x="113" y="213" type="curve" smooth="yes"/>
      <point x="113" y="299"/>
      <point x="172" y="353"/>
      <point x="265" y="353" type="curve" smooth="yes"/>
      <point x="297" y="353"/>
      <point x="327" y="347"/>
      <point x="353" y="334" type="curve"/>
      <point x="381" y="396" type="line"/>
      <point x="352" y="412"/>
      <point x="308" y="421"/>
      <point x="266" y="421" type="curve" smooth="yes"/>
      <point x="124" y="421"/>
      <point x="34" y="336"/>
      <point x="34" y="199" type="curve" smooth="yes"/>
      <point x="34" y="69"/>
      <point x="106" y="-6"/>
    </contour>
    <contour>
      <point x="230" y="55" type="curve" smooth="yes"/>
      <point x="159" y="55"/>
      <point x="129" y="91"/>
      <point x="129" y="125" type="curve" smooth="yes"/>
      <point x="129" y="167"/>
      <point x="168" y="196"/>
      <point x="227" y="196" type="curve" smooth="yes"/>
      <point x="287" y="196"/>
      <point x="320" y="167"/>
      <point x="320" y="125" type="curve" smooth="yes"/>
      <point x="320" y="83"/>
      <point x="286" y="55"/>
    </contour>
  </outline>
</glyph>
<glyph name="six.tf" format="2">
  <advance width="700"/>
  <outline>
    <contour>
      <point x="377" y="-9" type="curve" smooth="yes"/>
      <point x="528" y="-9"/>
      <point x="640" y="81"/>
      <point x="640" y="215" type="curve" smooth="yes"/>
      <point x="640" y="343"/>
      <point x="533" y="429"/>
      <point x="390" y="429" type="curve" smooth="yes"/>
      <point x="276" y="429"/>
      <point x="184" y="376"/>
      <point x="161" y="306" type="curve"/>
      <point x="193" y="255" type="line"/>
      <point x="185" y="289"/>
      <point x="182" y="329"/>
      <point x="182" y="358" type="curve" smooth="yes"/>
      <point x="182" y="521"/>
      <point x="282" y="611"/>
      <point x="427" y="611" type="curve" smooth="yes"/>
      <point x="477" y="611"/>
      <point x="526" y="600"/>
      <point x="563" y="575" type="curve"/>
      <point x="606" y="666" type="line"/>
      <point x="560" y="694"/>
      <point x="493" y="709"/>
      <point x="427" y="709" type="curve" smooth="yes"/>
      <point x="208" y="709"/>
      <point x="69" y="561"/>
      <point x="69" y="338" type="curve" smooth="yes"/>
      <point x="69" y="112"/>
      <point x="185" y="-9"/>
    </contour>
    <contour>
      <point x="373" y="84" type="curve" smooth="yes"/>
      <point x="267" y="84"/>
      <point x="208" y="147"/>
      <point x="208" y="210" type="curve" smooth="yes"/>
      <point x="208" y="285"/>
      <point x="278" y="336"/>
      <point x="369" y="336" type="curve" smooth="yes"/>
      <point x="463" y="336"/>
      <point x="526" y="285"/>
      <point x="526" y="210" type="curve" smooth="yes"/>
      <point x="526" y="134"/>
      <point x="461" y="84"/>
    </contour>
  </outline>
</glyph>
<glyph name="slashlongcomb.sc" format="2">
  <anchor x="333" y="285" name="_center"/>
  <outline>
    <contour>
      <point x="45" y="-57" type="line"/>
      <point x="128" y="-57" type="line"/>
      <point x="622" y="627" type="line"/>
      <point x="538" y="627" type="line"/>
    </contour>
  </outline>
</glyph>
<glyph name="softsign-cy.loclBGR" format="2">
  <advance width="582"/>
  <outline>
    <contour>
      <point x="310" y="-9" type="curve" smooth="yes"/>
      <point x="462" y="-9"/>
      <point x="550" y="69"/>
      <point x="550" y="196" type="curve" smooth="yes"/>
      <point x="550" y="314"/>
      <point x="474" y="384"/>
      <point x="344" y="384" type="curve" smooth="yes"/>
      <point x="267" y="384"/>
      <point x="213" y="359"/>
      <point x="186" y="326" type="curve"/>
      <point x="186" y="532" type="line"/>
      <point x="76" y="532" type="line"/>
      <point x="76" y="202" type="line" smooth="yes"/>
      <point x="76" y="68"/>
      <point x="159" y="-9"/>
    </contour>
    <contour>
      <point x="311" y="74" type="curve" smooth="yes"/>
      <point x="231" y="74"/>
      <point x="186" y="121"/>
      <point x="186" y="192" type="curve" smooth="yes"/>
      <point x="186" y="238" type="line"/>
      <point x="208" y="279"/>
      <point x="252" y="304"/>
      <point x="313" y="304" type="curve" smooth="yes"/>
      <point x="396" y="304"/>
      <point x="438" y="257"/>
      <point x="438" y="192" type="curve" smooth="yes"/>
      <point x="438" y="128"/>
      <point x="397" y="74"/>
    </contour>
  </outline>
</glyph>
<glyph name="tildecomb.narrow" format="2">
  <anchor x="300" y="532" name="_top"/>
  <anchor x="300" y="699" name="top"/>
  <outline>
    <contour>
      <point x="361" y="608" type="curve" smooth="yes"/>
      <point x="416" y="608"/>
      <point x="449" y="654"/>
      <point x="449" y="734" type="curve"/>
      <point x="389" y="734" type="line"/>
      <point x="389" y="698"/>
      <point x="377" y="676"/>
      <point x="356" y="676" type="curve" smooth="yes"/>
      <point x="325" y="676"/>
      <point x="299" y="742"/>
      <point x="239" y="742" type="curve" smooth="yes"/>
      <point x="184" y="742"/>
      <point x="151" y="697"/>
      <point x="151" y="614" type="curve"/>
      <point x="211" y="614" type="line"/>
      <point x="211" y="652"/>
      <point x="223" y="675"/>
      <point x="244" y="675" type="curve" smooth="yes"/>
      <point x="275" y="675"/>
      <point x="301" y="608"/>
    </contour>
  </outline>
</glyph>
<glyph name="u.sc" format="2">
  <advance width="681"/>
  <anchor x="342" y="0" name="bottom"/>
  <anchor x="513" y="0" name="ogonek"/>
  <anchor x="342" y="570" name="top"/>
  <anchor x="558" y="570" name="topright"/>
  <outline>
    <contour>
      <point x="341" y="-9" type="curve" smooth="yes"/>
      <point x="501" y="-9"/>
      <point x="595" y="85"/>
      <point x="595" y="244" type="curve" smooth="yes"/>
      <point x="595" y="570" type="line"/>
      <point x="486" y="570" type="line"/>
      <point x="486" y="247" type="line" smooth="yes"/>
      <point x="486" y="142"/>
      <point x="435" y="87"/>
      <point x="342" y="87" type="curve" smooth="yes"/>
      <point x="248" y="87"/>
      <point x="197" y="143"/>
      <point x="197" y="247" type="curve" smooth="yes"/>
      <point x="197" y="570" type="line"/>
      <point x="86" y="570" type="line"/>
      <point x="86" y="244" type="line" smooth="yes"/>
      <point x="86" y="85"/>
      <point x="181" y="-9"/>
    </contour>
  </outline>
</glyph>
<glyph name="uogonek.loclNAV" format="2">
  <advance width="679"/>
  <anchor x="337" y="0" name="bottom"/>
  <anchor x="592" y="0" name="ogonek"/>
  <anchor x="337" y="532" name="top"/>
  <anchor x="538" y="532" name="topright"/>
  <outline>
    <contour>
      <point x="354" y="-226" type="curve" smooth="yes"/>
      <point x="388" y="-226"/>
      <point x="422" y="-217"/>
      <point x="447" y="-203" type="curve"/>
      <point x="427" y="-147" type="line"/>
      <point x="411" y="-157"/>
      <point x="387" y="-163"/>
      <point x="366" y="-163" type="curve" smooth="yes"/>
      <point x="331" y="-163"/>
      <point x="306" y="-145"/>
      <point x="306" y="-111" type="curve" smooth="yes"/>
      <point x="306" y="-71"/>
      <point x="340" y="-43"/>
      <point x="399" y="-3" type="curve" smooth="yes"/>
      <point x="458" y="38"/>
      <point x="486" y="63"/>
      <point x="505" y="98" type="curve"/>
      <point x="487" y="142" type="line"/>
      <point x="487" y="0" type="line"/>
      <point x="592" y="0" type="line"/>
      <point x="592" y="532" type="line"/>
      <point x="482" y="532" type="line"/>
      <point x="482" y="260" type="line" smooth="yes"/>
      <point x="482" y="149"/>
      <point x="420" y="92"/>
      <point x="326" y="92" type="curve" smooth="yes"/>
      <point x="241" y="92"/>
      <point x="192" y="141"/>
      <point x="192" y="240" type="curve" smooth="yes"/>
      <point x="192" y="532" type="line"/>
      <point x="82" y="532" type="line"/>
      <point x="82" y="227" type="line" smooth="yes"/>
      <point x="82" y="68"/>
      <point x="175" y="-6"/>
      <point x="313" y="-6" type="curve" smooth="yes"/>
      <point x="329" y="-6"/>
      <point x="344" y="-5"/>
      <point x="359" y="-2" type="curve"/>
      <point x="373" y="35" type="line"/>
      <point x="268" y="-7"/>
      <point x="229" y="-66"/>
      <point x="229" y="-122" type="curve" smooth="yes"/>
      <point x="229" y="-183"/>
      <point x="275" y="-226"/>
    </contour>
  </outline>
</glyph>
